<?xml version="1.0" encoding="utf-8"?>
<!-- Generator: Adobe Illustrator 24.0.1, SVG Export Plug-In . SVG Version: 6.00 Build 0)  -->
<svg version="1.1" id="Layer_3" xmlns="http://www.w3.org/2000/svg" xmlns:xlink="http://www.w3.org/1999/xlink" x="0px" y="0px"
	 viewBox="0 0 1588.9 1481.2" style="enable-background:new 0 0 1588.9 1481.2;" xml:space="preserve">
<style type="text/css">
	.st0{fill:url(#SVGID_1_);}
	.st1{fill:#18A9E3;}
	.st2{fill:#34C9F7;}
	.st3{fill:#DBA926;}
	.st4{fill:#005D72;}
	.st5{fill:#C9C8D0;}
	.st6{fill:#393543;}
	.st7{fill:#8B8997;}
	.st8{fill:#DBBD79;}
	.st9{fill:#7E611C;}
	.st10{fill:#C1C1C1;}
	.st11{fill:#2B2B2B;}
	.st12{fill:#13B1E8;}
	.st13{fill:none;stroke:#005D72;stroke-width:6;stroke-miterlimit:10;}
	.st14{fill:none;}
</style>
<linearGradient id="SVGID_1_" gradientUnits="userSpaceOnUse" x1="1735.0864" y1="2232.4768" x2="-97.967" y2="1174.1628" gradientTransform="matrix(1 0 0 -1 0 2430)">
	<stop  offset="0" style="stop-color:#13B1E8"/>
	<stop  offset="1" style="stop-color:#137DE8"/>
</linearGradient>
<rect class="st0" width="1588.9" height="1481.2"/>
<path class="st1" d="M390.7,210L390.7,210l0.1-0.2l-0.4-0.6c1.2-1.8,1-3,0-4.2c-0.2-0.1-0.2-0.3-0.2-0.4c-0.6-0.8-1.2-1.4-1.8-1.9
	c-18.2-20.5-36.4-41-54.6-61.5c0,0,0,0-0.2-0.1c-7.9-9.1-15.8-18.2-24-27.1c0,0,0,0-0.2-0.1l-0.1-0.2l-0.4-0.8l-0.3-0.8l-1.7-3.4
	l-2.8-1.9l-0.2-0.1l-0.9-0.5l-0.2-0.1l-9-10.1l-0.2-0.1l0,0c0,0,0,0,0.1-0.2l0,0l-5.9-6.8l-0.2-0.1l-53.9-61.2l-0.2-0.1
	c-9.6,6.1-19.5,12.1-28.9,18.4c-12.4,7.9-24.9,16.2-37,24.1l-0.2-0.1c-4.3,5.9-8.5,11.6-12.5,17.4l-0.9,1.4c-0.2,1-0.5,1.8-0.7,2.5
	c-0.1,0.5-0.2,1-0.3,1.3l5.5,6.1l4.5,5l5.5,6.1c0.2,0.1,0.2,0.3,0.2,0.4c20.8,23.6,41.7,47.2,62.6,70.7c8.7,9.9,17.6,19.8,26.4,29.7
	c0,0,0.1-0.2,0.3-0.2l0,0c3.9-2.8,7.5-5.7,11.4-8.6c0.1-0.2,0.4-0.2,0.5-0.4c1-0.8,1.7-1.4,2.8-2.2c-4.8,3.7-9.5,7.6-14.3,11.4l0,0
	l-0.1,0.2l52.4,59.8h0.6l1.5,0.2l-0.2-0.1c6.9-4.7,13.5-9.6,20.8-14.2c9.9-6.7,20-12.8,30.1-18.9c0.6-0.1,1-0.4,1.8-0.5l0.2-0.1
	c3.7-2.4,7.1-4.7,10.7-7.2l5.2-6.3c1.4-1.9,2.7-3.7,4-5.8C387.8,215.2,389.2,212.8,390.7,210z"/>
<path class="st2" d="M390.4,205.1c-0.2-0.1-0.2-0.3-0.2-0.4c-0.4-0.6-1.2-1.4-1.7-2c-4.5-5-8.9-10-13.4-15l-0.7-0.9
	c-13.4-15.2-26.8-30.4-40.5-45.6c0,0,0,0-0.2-0.1c-7.9-9.1-15.8-18.2-24-27.1c0,0,0,0-0.2-0.1l-0.2-0.3l-6.2-7.3l0,0l-9-10.1
	l-0.2-0.1l-5.9-6.8l0.1-0.2l0,0l-0.2-0.1L234,27.7c-9.6,6.3-19.5,12.2-29,18.5c-12.3,7.9-24.5,15.9-36.7,24c0,0,0,0-0.1,0.2l0,0
	c-0.1,0.2-0.2,0.1-0.3,0.2l0.2,0.1l58.6,66.3l-0.1,0.2l5.9,6.9c15.1,17.4,30.3,34.7,45.4,52.1l0,0l0.4-0.2
	c5.4,6.1,10.7,12.3,15.9,18.3c1.3,1.6,2.6,3,3.9,4.4c3.9,4.4,7.8,8.9,11.7,13.2c0.2,0.3,0.4,0.5,0.6,0.8c3.9,4.3,7.7,8.7,11.4,12.8
	c1.3,1.6,2.6,2.9,3.9,4.4l63.8-39.9c0.1-0.2,0.1-0.2,0.1-0.2l0.1-0.2C391.5,207.5,391.3,206.2,390.4,205.1z M228.5,133.7
	c-0.4,0.8-0.9,1.5-1.1,2.3C227.8,135.1,228.1,134.3,228.5,133.7z"/>
<path class="st3" d="M227.3,136.5L227.3,136.5c0.4-1.1,0.9-2.1,1.7-3.4C228.3,134.2,227.7,135.4,227.3,136.5z"/>
<path class="st3" d="M231.2,129.4c-0.4,0.6-1,1.1-1.2,1.8C230.2,130.7,230.5,130,231.2,129.4z"/>
<path class="st3" d="M231.7,128.9c0.5-0.5,1-1.1,1.6-1.5C232.6,127.9,232.2,128.5,231.7,128.9z"/>
<path class="st4" d="M278.6,195.5c-6.3,5.1-12.8,10.2-19.1,15.3c-8.8-9.8-17.9-19.7-26.4-29.7c-21-23.8-41.9-47.4-63-71.1l0,0
	l-5.5-6.1l-4.5-5l-5.5-6.1c0.3-1.3,0.7-2.5,1.1-3.8c0.4-0.6,0.7-1,0.9-1.4c4.3-5.9,8.3-11.7,12.5-17.4l0.2,0.1l58.6,66.4l0.2,0.1
	l0,0l5.9,6.8L278.6,195.5L278.6,195.5z"/>
<path class="st4" d="M386.5,217.7c-1.4,1.9-2.7,3.7-4,5.8l-5.2,6.3c-3.7,2.4-7.1,4.7-10.5,7.1c-0.6,0.1-1.2,0.4-2,0.6
	c-10.1,6.4-20.1,12.4-30.1,18.9c-7,4.6-13.9,9.4-20.8,14.2l0.2,0.1l-2.1-0.2l-52.4-59.9c6.3-5.1,12.8-10.2,19.1-15.3l0.4-0.2
	c5.4,6.1,10.7,12.3,15.9,18.3c1.3,1.6,2.6,3,3.9,4.4c3.9,4.4,7.8,8.9,11.7,13.2c0.2,0.3,0.4,0.5,0.6,0.8c3.7,4.2,7.7,8.7,11.4,12.8
	c1.3,1.6,2.6,2.9,3.9,4.4l0,0l63.8-39.9l0.4,0.6C389.4,212.6,388,215.2,386.5,217.7z"/>
<path class="st1" d="M79.3,227.3h-2.1H79.3z"/>
<path class="st1" d="M85.2,226.8l-1.9,0.1L85.2,226.8z"/>
<path class="st1" d="M83.1,226.9l-1.9,0.1L83.1,226.9z"/>
<path class="st1" d="M81.2,227l-1.9,0.1L81.2,227z"/>
<path class="st5" d="M156.1,87.3l-0.9,1.4L156.1,87.3z"/>
<path class="st3" d="M227.3,136.5L227.3,136.5c0.4-1.1,0.9-2.1,1.7-3.4C228.3,134.2,227.7,135.4,227.3,136.5z"/>
<path class="st3" d="M231.2,129.4c-0.4,0.6-1,1.1-1.2,1.8C230.2,130.7,230.5,130,231.2,129.4z"/>
<path class="st3" d="M231.7,128.9c0.5-0.5,1-1.1,1.6-1.5C232.6,127.9,232.2,128.5,231.7,128.9z"/>
<path class="st6" d="M169.4,113.6c0.2-1.2,0.3-2.6,0.5-3.8l0,0C169.6,111.3,169.4,112.6,169.4,113.6z"/>
<path class="st7" d="M169.4,113.6c0.2-1.2,0.3-2.6,0.5-3.8l0,0C169.6,111.3,169.4,112.6,169.4,113.6z"/>
<path class="st8" d="M333.9,141.2L333.9,141.2L333.9,141.2L333.9,141.2z"/>
<polygon class="st4" points="294.3,95.9 294.3,95.9 294.3,95.9 294.3,95.9 288.5,89.2 288.3,89 288.4,88.8 288.5,89.2 "/>
<polygon class="st9" points="310,113.8 309.2,112.8 304.1,106.8 303.5,106.3 303.5,106.3 307.2,108.8 309.5,113 "/>
<polygon class="st4" points="367.6,813 317.5,809.1 254.3,852.5 234.8,811.3 203.8,779.2 266.5,735.3 280.3,687.1 368.2,680.7 
	420.1,679.1 317.3,748.2 312.8,756.9 279.7,780.7 313.4,758.1 323.2,757.1 423.9,684.9 404.3,733.1 "/>
<polygon class="st10" points="212.6,759.6 203.8,779.2 223.3,770.7 "/>
<polygon class="st10" points="289.1,667.3 280.3,687.1 283.6,686.8 "/>
<path class="st10" d="M429,659.5L429,659.5z"/>
<polygon class="st11" points="423,672.4 429,659.5 398.6,680 412.9,679.5 "/>
<polygon class="st4" points="212.6,759.6 203.8,779.2 234.8,811.3 254.3,852.5 263.2,832.9 243.6,791.6 "/>
<polygon class="st4" points="289.1,667.3 280.3,687.1 271.3,718.4 275.3,715.8 "/>
<polygon class="st4" points="308.4,259.1 439.7,415.3 434.7,419 303.7,261.2 "/>
<polygon class="st4" points="401.4,371.4 806.2,830.9 801.2,834.6 396.4,373.5 "/>
<path class="st4" d="M439.7,415.3c0,0,40.3,46.4,44.7,109c8.1,114.2-55.6,144-55.6,144l-2.4-5c0,0,64.7-42.7,51.2-139.3
	c-0.2-59.8-43-105.1-43-105.1L439.7,415.3z"/>
<rect x="442.2" y="424.7" transform="matrix(0.7887 -0.6148 0.6148 0.7887 -172.1573 370.7458)" class="st4" width="22.2" height="22.2"/>
<rect x="421.5" y="649.6" transform="matrix(0.7887 -0.6148 0.6148 0.7887 -314.7483 405.5476)" class="st4" width="22.2" height="22.2"/>
<polygon class="st12" points="307.2,108.8 309.5,113 308.7,112.1 304.1,106.8 303.5,106.3 "/>
<polygon class="st4" points="223.7,266.2 253.9,194.7 67.6,111.6 35.2,183.7 "/>
<polygon class="st2" points="226.6,239.9 256.8,168.4 70.3,85.5 38,157.6 "/>
<g>
	<path class="st2" d="M145.2,263.9c-3,6.7-6.1,13.2-9,19.9c-0.4,0.6-0.9,1.4-1.2,1.9c-0.1,0.2-0.4,0.6-0.5,0.9
		c-1.1,1.6-1.9,2.9-2.8,4.3l-2.5,2.6c-1.8,0.5-3.6,1.4-5.3,2c-8.6,5.8-18.3,7.5-28.9,7.4c-39.9-0.1-72.4-34.9-68.4-70.6
		c0.3-1.9,0.1-3.8-0.1-5.5l0,0l0,0c0.3-0.4,0.7-1,0.9-1.4l0,0c0.4-1.3,0.9-2.6,1.5-3.7c1-1.1,2-2.6,2.7-3.7c6-12.1,16-19,29.2-22.8
		c1-0.4,2.1-0.6,3.2-0.9c0.4-0.1,1-0.3,1.3-0.5c1.5-0.6,2.9-1.4,3.8-2.2l0,0l2.4-0.1l2.4-0.1l2.4-0.1l2.4-0.1c2.6,0.5,5,0.9,7.8,1.4
		l3.5-0.2c2.3,1.4,4.8,2.7,7.5,3.8c22.5,8.2,37.9,22.9,45.6,45.3c0.4,0.8,1,1.9,1.8,2.8l0,0c0.1,0.2,0.1,0.2,0.1,0.4
		c0.5,1.8,0.9,3.4,1.4,5.2l0.2,2.4c0.1,0.9,0.2,1.4,0.2,2.4c-0.4,2-0.5,3.8-0.7,5.7l0,0c-0.1,0.7-0.2,1.2-0.4,2
		C145.6,263.2,145.4,263.5,145.2,263.9z"/>
	<path class="st4" d="M129.1,293.8L129.1,293.8c-3.1,9.7-9.7,17.2-17.1,23.7c-1.7,1.4-3.5,3.2-5.1,4.7l0,0c-2.8,1.2-5.4,2.4-8.2,3.6
		c-1,0.4-2.2,0.9-3.4,0.9l-1.5,0.5c-1,0.4-2.3,0.5-3.3,0.7c-1.1,0.2-1.9,0.3-2.8,0.6c-1,0.2-1.3,0.1-2.1,0.3l-0.2,0.1l-1.1,0.1
		c-0.8,0.1-1.3,0.1-2.2,0.2c-0.9,0.1-1.8,0.1-2.5,0.2c-0.9,0.1-2.1,0-3.1-0.1c-0.6,0-1.1,0.1-1.9-0.3l-0.6,0l-0.9-0.3l-1.7-0.3
		c-0.3-0.1-0.6,0-1-0.2c-0.7-0.1-1.7-0.3-2.2-0.2c-0.7-0.1-1.7-0.3-2.5-0.5l-0.2-0.1c-0.7-0.1-1.5-0.4-2.5-0.5l-0.7-0.2
		c-0.6-0.3-1.5-0.4-2-0.5c-0.6-0.3-1.8-0.5-2.5-0.8l-2.9-1.3c-1.8-0.6-3.7-1.6-5.5-2.3c-0.8-0.4-1.5-0.9-2.3-1.1
		c-6.2-3.2-11.4-7.9-17.3-12l-11.7-14.6c-2.4-6-5.4-12.1-7.1-18.4c-3.8-14.1-1.2-28.8,7.1-40.5c1.7-2.3,3.1-4.9,4.8-7l0,0l3.3-0.5
		l0,0l0,0c0.1,1.8,0,3.7,0.1,5.5c-3.9,35.9,28.4,70.5,68.4,70.6c10.4-0.1,20.1-1.7,28.9-7.4C125.5,295.1,127.2,294.5,129.1,293.8z"
		/>
</g>
<polygon class="st4" points="38,157.6 28.4,181.4 35.2,183.7 48.9,162.3 "/>
<path class="st13" d="M1057,0c38.5,114,128.9,293.9,335.3,433c3.1,2,6.1,4,9.2,6.1c0.8,0.6,1.6,1.1,2.5,1.6
	c3.8,2.4,7.5,4.9,11.3,7.3c60.6,38.3,118.9,65.6,173.6,84.7"/>
<rect x="1392.3" y="425.2" transform="matrix(0.5409 -0.8411 0.8411 0.5409 275.7253 1383.0729)" class="st4" width="24.8" height="27.5"/>
<g>
	<polygon class="st4" points="1395.5,452.9 1311.1,579.5 1386,565.5 1448.7,605.8 1457.1,593.5 	"/>
	<polygon class="st2" points="1404,440.6 1319.6,567.3 1394.3,553.3 1457.1,593.5 	"/>
</g>
<polyline class="st14" points="1057,0 1089.4,37.3 1569.7,517.5 1588.9,532.7 "/>
<polygon class="st2" points="376.5,793.5 326.4,789.5 263.2,832.9 243.6,791.6 212.6,759.6 275.3,715.8 289.1,667.3 377.3,661.2 
	429,659.5 326.2,728.5 321.7,737.4 288.7,761.1 322.5,738.4 332.1,737.5 432.9,665.3 413.3,713.3 "/>
<circle class="st4" cx="803.9" cy="832.6" r="11.7"/>
</svg>
