<?xml version="1.0" encoding="utf-8"?>
<!-- Generator: Adobe Illustrator 24.0.1, SVG Export Plug-In . SVG Version: 6.00 Build 0)  -->
<svg version="1.1" id="Layer_1" xmlns="http://www.w3.org/2000/svg" xmlns:xlink="http://www.w3.org/1999/xlink" x="0px" y="0px"
	 viewBox="0 0 1588.9 1481.2" style="enable-background:new 0 0 1588.9 1481.2;" xml:space="preserve">
<style type="text/css">
	.st0{fill:url(#SVGID_1_);}
	.st1{fill:#B72C2C;}
	.st2{fill:#FEA7A8;}
	.st3{fill:#181364;}
	.st4{fill:#03CEFA;}
	.st5{fill:#261A5E;}
	.st6{fill:none;}
	.st7{fill:#E8E8E8;}
	.st8{fill:#402E92;}
	.st9{fill:#4267FF;}
	.st10{fill:#3E60EB;}
	.st11{fill:#E19395;}
	.st12{fill:#FFFFFF;}
	.st13{fill:#03BCE4;}
	.st14{fill:#AFAFAF;}
	.st15{fill:#2A2A7F;}
	.st16{fill:#242545;}
	.st17{fill:#6B3E25;}
	.st18{fill:#284BF2;}
	.st19{fill:#130F4A;}
	.st20{fill:#931111;}
	.st21{fill:#0A071D;}
	.st22{fill:url(#SVGID_2_);}
	.st23{fill:#D17C80;}
	.st24{fill:#123ACC;}
	.st25{fill:#2F170B;}
	.st26{fill:#FFC09F;}
	.st27{fill:#E1A687;}
	.st28{fill:#492A35;}
	.st29{fill:#0F0B47;}
	.st30{fill:#4B55F3;}
	.st31{fill:#FF81C3;}
	.st32{fill:#14C3D3;}
	.st33{fill:#FF622D;}
	.st34{fill:#3A4ADD;}
	.st35{fill:#E58C91;}
</style>
<title>ill2</title>
<g id="Layer_2_1_">
	<g id="Layer_4">
		
			<linearGradient id="SVGID_1_" gradientUnits="userSpaceOnUse" x1="275.1475" y1="690.0568" x2="1313.7524" y2="-1108.8568" gradientTransform="matrix(1 0 0 1 0 950)">
			<stop  offset="0" style="stop-color:#E4802D"/>
			<stop  offset="0.29" style="stop-color:#E36B2D"/>
			<stop  offset="0.89" style="stop-color:#E1362C"/>
			<stop  offset="1" style="stop-color:#E12C2C"/>
		</linearGradient>
		<path class="st0" d="M764.9,759.2C764.7,759.1,764.8,759.3,764.9,759.2L764.9,759.2z M0,0v1481.2h1588.9c0,0,0-175.5,0-257.1V0H0z
			 M824.7,716.1c0-0.1,0,0,0-0.3C824.8,715.9,824.8,715.8,824.7,716.1z M822.1,706.3c-0.4-0.2-0.8-0.5-1.1-0.9
			C821.4,705.7,821.8,706,822.1,706.3z M797.1,596.4c-0.1,0-0.1,0-0.1-0.1C797,596.3,797,596.3,797.1,596.4z M760.2,760
			c0-0.1,0-0.1,0-0.2C760.3,759.8,760.3,759.7,760.2,760z M733,745.4c0-0.2,0,0-0.1-0.6C733.1,744.5,733.1,744.3,733,745.4z"/>
		<path class="st1" d="M875.9,0c0,0.4,0,0.7-0.1,1.1c-0.4,5.7-0.9,11.4-1.5,17c-0.1,0.9-0.2,1.8-0.3,2.7c-0.2,1.9-0.4,3.7-0.6,5.5
			v0.1c-0.2,1.3-0.3,2.7-0.5,4c-0.3,2.3-0.6,4.6-0.9,6.9c-0.3,2.5-0.7,5-1.1,7.5c-0.2,1.5-0.5,2.9-0.7,4.4c-0.3,2-0.7,4-1,6
			c-1.1,5.9-2.2,11.8-3.5,17.7c-0.4,2-0.9,3.9-1.3,5.9c-1.8,8-3.8,15.9-6,23.7c-0.4,1.3-0.7,2.6-1.1,3.9c0,0,0,0.1,0,0.1
			c-0.7,2.4-1.4,4.8-2.1,7.2c-1.7,5.6-3.5,11.1-5.4,16.6c-69.5,204.4-263.1,351.6-491,351.6c-23.5,0-46.8-1.5-69.7-4.6
			c-0.5-0.1-0.9-0.1-1.4-0.2C180,462.2,79.1,413.8,0,337.8V0H875.9z"/>
		<path class="st1" d="M1588.9,1481.2H0V813.9c80.5-2.1,356.6,0.1,436.9,6.4c397.2,31.6,819.7,188.5,1152,403.8
			C1588.9,1305.7,1588.9,1481.2,1588.9,1481.2z"/>
	</g>
	<g id="Layer_5">
		<path class="st2" d="M996.4,130.1c0-0.9,0.3-1.7,0.3-2.6c0-0.9,1.3-1.9,0.8-2.5c-0.5-0.6-3.1-0.8-3.8-0.2c0.5-0.2,0.9-0.7,1.1-1.1
			c-0.4-0.8-1.3-1.1-2.1-0.7c-0.7,0.4-1.4,0.9-1.9,1.4c-1.6,1.2-2.9,0-4.9-0.3c-1.4-0.1-2.7-0.5-4.1-1.3c0.3-0.8-1.6-0.8-1.3-1.4
			l-1.6-1.9c-2.7,2-4.5,4.9-5,8.3c-0.3,3.4,1.5,6.6,4.5,8.2c-1.2-0.5,2.3,0.1,3.3-0.7c1-0.7-1-1.9,0.2-1.5c2.2,0.7,4.5,0.8,5.7,2.8
			c0.4,0.8-0.3,1.8,0.2,2.5c0.9,0.8,2.1,1.3,3.3,1.1c0.8-0.2,1.5-1.4,0.9-2l1.6,0.7c0,0,4.7-3.3,4.7-3.5c0.1-0.6-1.1-1.8-1.4-2.5
			C996.6,132.2,996.4,131.1,996.4,130.1z"/>
		<path class="st3" d="M961.1,60.5c-5.7-5.9-13.6-9.1-21.4-11.8c-11.5-4.1-23.2-7.5-35-10.3l0.4-0.3c-10.3-2.5-21-4.6-31.4-7.1
			c-2.6,9.7-4.4,15.3-4.8,18c23.9,5.6,48.5,12.8,71.7,20.7c-24.2-5.3-48.5-10.2-72.9-14.7c-0.7,6-1.7,11.9-3.2,17.7
			c21.5,4.6,43.2,8.7,64.8,12.4c8.7,1.6,17.5,2.6,26.3,2.8c-2.1-3.4-2-7.7-1.7-11.6c0.2-3.1,0.7-6.1,1.8-9
			C956.6,64.6,958.5,62.2,961.1,60.5z"/>
		<path class="st3" d="M985.3,88.4c-0.9-0.8-1.7-1.8-2.5-2.8l0.2,3.2l2.2-0.3l-3.2,0.3l0.6-0.6l-0.8-0.3c0.2,0,0.4-0.1,0.6-0.3
			l-0.8-0.3c0-0.3,0.3-0.5,0.6-0.5l-0.7-0.3l0.7-0.3l-1-0.4c0.6,0.9,0.9,2,1,3l-0.1-0.4L985.3,88.4z"/>
		<path class="st4" d="M976.9,109.2c-3.3-5.4-10.1-7.3-14.5-11.7c-1.9,3.9-3.6,8-4.9,12.2l6,3.1c-3.8-1.3-7.7-2.5-11.6-3.2
			c-1.2-0.2-3.9-1.8-4.7-1.1c-0.5,1-0.9,2.2-0.9,3.4c-0.5,3.8-1.7,6.9-2.1,10.7c-0.1,0.5-1.8,0.3-2.1,0.8s0.3,2.1-0.2,1.9
			c-0.5,1.5-0.7,3.1-0.6,4.7c-0.1,1.8,0.1,3.8,1.4,5c1.3,1.2,5.4,2,7,2.3l12.9,2.6l-6.8,2.6l6.3,10.9c3-3,7.7-3.5,10.7-6.3
			c3.1-2.7,4.3-7.3,5.2-11.4c-4.1-3.1-4.9-8.8-2-12.9c0.8-1.2,3-2.3,3.3-3.4c0.4-1.4-0.2-3.8-0.5-5.1
			C978.3,112.3,977.8,110.7,976.9,109.2z"/>
		<path class="st5" d="M978.9,116.9c-7.4-0.4-14.3,3.8-21.6,5.4c-3.6,0.8-7.3,0.9-10.7,2.4c-1.4,0.6-2.8,1.8-2.7,3.3
			c-0.1-0.2,27.6-6.6,30-7.2c1.1-0.3,3.3-0.4,4.2-1.1C979.1,118.9,978.8,117.9,978.9,116.9z"/>
		<path class="st6" d="M996.5,129.1c0.4-1.1,0.4-2.1,0.4-3.2c-0.2-1.1-1.6-1.9-2.4-1.1c0.5-0.5,0.4-1.4,0-1.8
			c-0.1-0.1-0.2-0.1-0.4-0.3c-0.8-0.3-1.7-0.2-2.3,0.3c-0.7,0.4-1.3,1-2,1.5c-1.6,1-3.4,1.2-5.2,0.8c-1.7-0.5-3.5-1.1-5.1-1.9
			c0.6-1.3,0.4-2.9-0.7-3.9c-4.6,2.2-6.5,7.8-4.3,12.4c0.7,1.6,2,2.9,3.5,3.9l0.5-3.9c3.7,0.8,7.7,1.7,10,4.7
			c-0.6,0.9-0.6,2-0.2,2.9c0.4,1,1.6,1.4,2.6,0.9c0.7-0.4,0.9-1.4,0.4-2.1c-0.1-0.2-0.2-0.3-0.4-0.5l2.8,1.3
			c0.7-0.8,1.6-1.6,2.5-2.3c0.7-0.5,2.6-0.9,2.5-1.7c0-0.5-1.7-2-2-2.7C996.4,131.4,996.3,130.3,996.5,129.1z"/>
		<path class="st7" d="M881.5,82.7c-2.8,0.5-6.3-1.1-9-1.9l-9.8-2.5c-0.6,7.5-2.9,14.4-5.1,21.7c-0.2,0.7-0.4,1.6,0.2,2.2
			c0.2,0.1,0.5,0.3,0.7,0.4c8.6,2.9,17.4,5.2,26.3,6.9c11.5,2.1,22.7,5.8,34,8.5c-20.9-4.6-42.4-8.7-63.5-11.8l0.8,0.2
			c-2.6,11.9-4.3,14-6.7,21.1c-0.4,1-0.4,2.4,0.4,2.9c0.4,0.2,0.8,0.3,1.2,0.3c18.7,2.1,39.7,5.2,58.4,7.2
			c6.2,0.7,12.6,1.3,18.3-0.9c5-1.9,10.7-0.7,16-1.6c-0.3-1.6-0.5-3.4-0.7-5c0,0.9-0.3,1.9-0.9,2.6c-1-1.5-1.4-3.3-1-5l-1.1,3
			c-0.5-0.3-1.1-0.4-1.6-0.4l0.4-3.6c-0.1,1.1-0.4,2.2-1,3.1c-0.3,0.1-0.6-0.1-0.8-0.3c-0.2-0.2-0.2-0.5-0.2-0.8l-0.4-3.9l-1.5,3.8
			c-0.4,0.2-0.9,0.2-1.2-0.3c0,0,0-0.1-0.1-0.1c-0.1-0.5,0-1,0.2-1.5c0.3-0.5,0.6-0.8,1-1.2c0.8-0.9,1.3-2,1.5-3.2
			c1.8-1,1.6-2.4,2.5-4.2c0.8-1.6,2.7-2,1.7-13.9c-4.2-2.3-9.8-5.2-14-7.2c-8.1-3.7-16.7-6.1-25.4-8.4
			C894.4,87.1,887.4,86.4,881.5,82.7z"/>
		<path class="st8" d="M939.4,135.1l-0.1-4.2c-2.1-0.9-3.1-3.3-2.4-5.4c-0.3,1.5-1.5,2.7-3,3l2.9-6.1c-4,0-7.6,2.2-9.5,5.8
			c-1.7,3.6-1.1,7.9,1.7,10.8c2.9,2.8,7.4,3.2,10.8,1l-0.8-3.6l0.9,1.3c2.2-0.9,4.6-1.4,6.9-1.4c-1.4,0.1-2.3-1.3-3.5-1.6
			C942.1,134.4,940.6,134.8,939.4,135.1z"/>
		<path class="st2" d="M956.3,143.6c-1.9,1.7-4.3,2.6-6.5,3.7s-4.3,3.1-4.6,5.5c-0.2,1.6,0.4,3.3,1.4,4.6c1,1.3,2.2,2.4,3.5,3.4
			l18.1,15.1c-1.1,0.4-1.6,1.7-1.2,2.8l0,0c0.4,1,1.2,1.9,2.1,2.5c1.4,1,2.9,2.2,4.5,1.6c0.4-0.2,0.9-0.4,1.3-0.4
			c0.5,0.1,0.9,0.2,1.2,0.5l5.4,3.3c0.6-1-0.5-2.2-1.6-2.7c-1.1-0.5-2.3-0.9-2.8-1.9c1.6,1.7,3.9,2.4,6.2,2.2
			c-1.9-1.4-3.4-3.2-4.7-5.1c-0.3-0.7-0.7-1.3-1.2-1.9c-0.6-0.6-1.3-1.1-2.1-1.5c-2.8-1.9-4.7-4.8-6.6-7.6
			c-3.7-5.3-8-10.1-12.8-14.4c0.2,0.8,1.3,1,1.9,0.5c0.8-0.6,1.6-1.3,2.3-2.1c0.8-1,0.4-1.4-0.2-2.5
			C959.7,148.9,956.3,143.6,956.3,143.6z"/>
		<path class="st2" d="M1015.8,84.3c0.2-1,0.1-1.9-0.3-2.8c-0.5-1-1.4-1.8-2.5-2.1c-1.1-0.3-2.3-0.5-3.4-0.5c0.5,0,1.1-0.2,1.3-0.6
			c0.2-0.5-0.1-1-0.6-1.2c-0.5-0.1-1-0.1-1.4,0.2c-0.4,0.2-0.9,0.6-1.3,0.7c-1.2,0.3-2.4,0.4-3.6,0.3c-1.2,0-2.6,0.5-3,1.6
			c-1.2-0.1-2.4-0.5-3.5-1c-1.1-0.5-2.4-0.5-3.6,0c-0.9,0.7-1.5,1.7-1.6,2.9c-0.2,1.5,0.4,2.9,1.6,3.7c1.2,0.6,2.8,0.1,4.1,0.7
			c1,0.6,1.9,1.4,2.6,2.3c0.6,1,1.8,1.6,3,1.6c-0.1,0.8,0,1.7,0.4,2.4c0.5,0.7,1.4,1,2.2,0.9c0.8-0.3,1.1-1,0.9-1.8
			c0-0.1-0.1-0.1-0.1-0.2c1.2,1.6,5.2,1.7,6.5,0.3c0.6-0.8,1-1.9,1.3-2.9C1015.3,87.4,1015.6,85.9,1015.8,84.3z"/>
		<path class="st2" d="M1015.4,34.9c0.5-0.2,1.2-0.5,1-1.2c-0.2-0.6-0.9-0.6-1.4-0.4l-5.5,0.9l5.2-1.9c0.3-0.1,0.7-0.3,0.9-0.6
			c0.4-0.6-0.4-1.6-1.2-1.6c-0.8,0.1-1.6,0.4-2.2,0.9c-0.7,0.5-1.5,0.7-2.3,0.4c0.2-0.8,1.1-1,1.9-1c0.8,0.1,1.5-0.1,2.2-0.4
			c0.7-0.4,0.7-1.6,0-1.8c-0.2,0-0.4,0-0.6,0.1l-5,1.4c-0.3-0.4,0-1,0.5-1.3c0.5-0.2,1-0.4,1.4-0.7c0.5-0.3,0.6-1.1,0.1-1.3
			s-0.7,0.1-1.1,0.3c-2.6,2-5.8,3-8.8,4.1l-22.4,7.5c-1.4,0.4-2.8,1-4,1.7c-1.2,0.7-2.2,2-2.7,3.3c-0.6,2,0.3,4.2,1.4,6.1
			c1.9,3.3,4.1,6.4,6.8,9.2l9.7-4c-0.3-1.9-0.8-3.7-1.6-5.4c-0.8-1.8-2.4-3-4.3-3.4c4.8-1.5,9.4-3.6,13.7-6.2c0.8-0.6,1.8-1,2.7-1.3
			c1.7-0.2,3,0.7,4.4,1.4c0.9,0.6,4.8,2.5,5.8,1.4c0.6-0.6-2.4-1.9-2.4-2.6c0-0.7,1.2-1.3,2-1.7
			C1011.6,36.1,1013.5,35.4,1015.4,34.9z"/>
		<path class="st2" d="M952.3,91.7c-3.5-2.2-7.3-0.7-9.7,2.4c-1.4,1.7-1.6,4.3-1.9,6.5c-0.3,3.6,0,7.1,0,10.7c0,3.6-1.7,6.6-3.3,9.8
			c-1,2.1-2.6,3.8-3.7,5.9c-0.3,0.6-0.5,1.2-0.1,1.6c0.4,0.4,1.2,0.3,1.5-0.2l0-0.1c0.3-0.6,0.5-1.1,0.6-1.7c0-0.6,0.3-1.2,0.8-1.6
			l-0.1,4.9l0.7,0.5c1-1.5,1.6-3.2,1.9-5.1l-1.2,3.8c-0.2,0.5-0.2,0.9,0,1.3c0.5,0.8,1.8,0.3,2.2-0.6c0.4-0.8,0.5-1.8,1.1-2.6
			c-0.6,1.8-0.5,3.8,0.4,5.5c1.4-2.5,2.4-5.2,2.6-8.1l1.1,0.8l1-0.8c-0.5-2,0.2-4.1,0.2-6.3c0.2-5.2,0.9-10.4,1.9-15.6
			c2.7,2.6,5.7,4.8,9,6.5l4.8-10.8c5,0.5,8,5.9,12.7,7.6l2.4-2.3l-6.4-9.5c-0.2,1.4-1.7,2.2-3,2.6c-1.4,0.4-2.7,1-3.9,1.8
			c-1.1,0.6-2.1,0.2-2.9-0.6C958,95.7,953.8,92.6,952.3,91.7z"/>
		<path class="st6" d="M998.6,139.2c1.6-1.4,2.7-3.3,2.8-5.4c0.1-2.1-0.2-4.2-1.1-6c-0.3-0.8-0.7-1.4-1.3-2c-1.2-1.1-3.2-1-4.8-0.9
			c0.6-0.2,1-0.8,0.9-1.5c-0.1-0.5-0.6-0.9-1.2-1c-0.6,0.1-1.2,0.3-1.5,0.8c-2,1.5-4.3,2.6-6.8,3.1l-5.2-1.9c-0.4-0.1-0.7-0.3-1-0.6
			c-0.4-0.7-0.5-1.4-0.2-2.1c0.3-0.7,0.4-1.4,0.2-2.2c-4.7,2.4-6.8,8.1-4.4,12.9c0.7,1.3,1.6,2.6,2.9,3.5l0.3-3.9
			c1.9,0.5,3.9,0.8,5.9,0.9c0.7,1.9,2.2,3.4,4.2,4c-0.6,0.7-0.1,1.7,0.5,2.4c0.3,0.5,0.8,0.8,1.4,1c0.6,0.2,1.2,0,1.5-0.5
			s-0.2-1.2-0.7-1.1c1.8,0.8,3.7,1.1,5.6,1.1c1.9-0.1,3.7-1.2,4.6-2.9"/>
		<path class="st6" d="M960.9,152.3l-4.4-8.8c-2.1,1.7-4.7,2.6-6.9,4c-2.2,1.4-4.3,3.7-4.3,6.4c0.1,2.7,2.3,4.8,4.3,6.7l17.8,15.5
			c-0.6,1.6-0.2,3.5,1,4.8c1.2,1.3,2.6,2.3,4.2,3.1l1.9-2.3c1.9,2.2,4.3,3.7,7.1,4.6c-0.7-1.9-2-3.7-3.8-4.9l3.7,2.4
			c0.4,0.3,1,0.5,1.3,0.1c0.1-0.3,0.1-0.6-0.2-0.8c-0.7-1-1.6-1.9-2.6-2.5c-1-0.8-1.6-1.9-1.7-3.1c0-0.3,0-0.6-0.2-0.9
			c-0.3-0.2-0.5-0.4-0.9-0.5c-2.3-0.5-3.9-2.3-5.3-4.2L960.2,157c-1-1.4-2.2-2.7-3.7-3.6c0,0.8,1.2,1,1.7,0.7c0.6-0.5,1.2-1,1.6-1.6
			c0.6-0.5,1.6-0.7,2-0.1"/>
		<path class="st9" d="M999,69.7c-0.7-3.3-2.4-6.2-4.1-9.1l-6-10.3l-10.2,6.5c-0.8,0.4-1.3,1-1.6,1.7c-0.4,1.7,2.3,2.9,1.9,4.6
			L968,60.6c-2.5-0.5-5-1-7.4-0.1c-2.5,1-4.1,3.5-5,6c-1.7,4.3-1.9,8.9-2.1,13.4c-0.1,2.4,0.1,5.1,1.7,7c1.4,1.2,3.1,2,4.9,2.3
			c4.4,1,8.9,1.6,13.4,1.7c-2.2,1-4.1,2.3-5.9,3.8l6.4,9.9c0.3,0.6,0.7,1,1.3,1.3c0.9,0.1,1.7-0.1,2.3-0.6l8.9-5.7
			c2.4-1.5,4.8-3.1,6.3-5.5c1.5-2.4,1.9-5.5,2.3-8.3c-2.1-0.4-3.4-2.5-2.9-4.4c0-0.1,0-0.1,0-0.2c0.4-1.2,1.5-2.1,2.7-2.3
			c1.1-0.2,1.8,0,2.6-0.9C999.6,75.9,999.6,72.2,999,69.7z"/>
		<path class="st5" d="M1012.2,92c-1.8,0-3.7-0.4-5.4-1.1c0.3,1.5,1.5,2.6,3,2.6c0.5-0.1,1,0,1.5,0c0.6,0.3,0.7,0.9,1,1.5
			c0.9,1.7,3,2.4,4.8,1.7c1.7-0.7,3.1-2.1,3.5-4c0.5-1.7,0.5-3.7,0.2-5.4c-0.2-1.9-0.7-3.7-1.6-5.4c-0.8-1.7-2.4-3-4.1-3.8
			c-1.8-0.7-3.8-0.4-5.3,0.9c0.6-0.5,3.8,1.6,4.2,2.1c0.7,1-0.2,1.8-0.7,2.7C1011.8,86.2,1011.3,89.3,1012.2,92z"/>
		<path class="st5" d="M996.2,130.8c0.6,1.8,1.7,3.4,3,4.9c-2.3,0-4.4,1.5-5.2,3.6c-0.8-0.6-1.8-1-2.8-1.1c0.5,0.6,0.4,1.5-0.2,1.9
			c-0.1,0.1-0.2,0.2-0.4,0.2c-1,0.3-1.9-0.3-2.2-1.2c-0.3-0.9-0.2-1.9,0.2-2.6c-1.6-0.7-2.2-2.7-3.7-3.5c-1.9-1.1-4.6,0.1-6.5-1
			c0.7,1.5-0.3,3.3-0.4,5c0,2.6,2.2,4.9,4.8,4.9c1.2,0,2.4-0.5,3.6-0.6c1.3,0,2.7,0.1,4.1,0.5c1.4,0.2,2.8-0.2,3.7-1.1
			c1,1.9,3.3,2.6,5.2,1.5c1-0.5,1.8-1.4,1.9-2.6c1.6,0.2,3-0.9,3.1-2.5c0.1-0.5,0-1-0.3-1.6c2.2-0.9,3.4-3.1,3.2-5.4
			c-0.1-0.6-0.3-1.2-0.7-1.6s-1.1-0.6-1.7-0.3c0.5-1.7,0.1-3.5-1.1-4.8c-0.7-0.8-1.7-1.3-2.8-1.3c-1.1,0.1-2,0.9-2,2
			c0.2-0.7-0.7-1.3-1.4-1.2c-0.7,0.2-1.5,0.2-2.2-0.1c-0.5-0.2-0.9-0.8-1.4-1c-0.5-0.3-1.2-0.2-1.7-0.6c-0.7-0.4-1.1-1.5-1.5-2.2
			c-1.1-1.6-3.1-2.2-4.9-1.5c-0.4-1.3-2.2-1.7-3.4-0.9c-1.1,0.7-1.8,1.9-2.1,3.2c-0.2,1.3-0.6,2.5-1,3.9c2.6-0.4,4.9,2.3,7.5,2.1
			c1.8-0.1,3.4-1.5,5-2.4c0.5-0.3,1-0.5,1.5-0.7c0.5-0.1,1.1,0.2,1.4,0.7c0.2,0.4,0,1-0.4,1.3l-0.1,0.1c0.7,0,1.5,0.1,2.2,0.4
			c0.7,0.4,0.4,0.5,0.2,1.1C996,127.8,995.8,129.3,996.2,130.8z"/>
		<path class="st3" d="M980.7,68.4c-0.7-2.5-2.5-4.8-4.9-6c1.3,0.3,3,0.4,3.8,1.4S980.3,67.1,980.7,68.4z"/>
		<path class="st3" d="M973.8,91.4c1.5-0.5,3.1-0.6,4.7-0.7c-1.6-0.4-3.3-0.3-4.9,0.1L973.8,91.4z"/>
		<path class="st10" d="M969.9,63.9c-2.2-0.4-4.5-0.6-6.4,0.3c-1.7,0.9-3,2.4-3.9,4c-2,3.4-3.2,7.3-3.4,11.2c-0.2,2,0.1,4.1,0.9,6
			c0.8,2,2.4,3.3,4.4,3.9c-2.5-0.4-5.1-1.3-6.3-3.4c-1-1.6-0.9-3.6-0.9-5.4c0.1-4.6,0.3-9.4,1.8-13.7c0.8-2.2,2-4.3,4.1-5.3
			c1.9-0.8,4-1,6-0.6c2.3,0.3,4.7,0.6,6.9,1.2c1.6,0.4,3,0.9,4.4,1.6c1,0.7,2.4,1.8,2.6,3c-1.3,0.1-3.4-1.3-4.8-1.7
			C973.3,64.6,971.5,64.1,969.9,63.9z"/>
		<path class="st11" d="M999.5,81.9c-1.8,0.5-3.8,1-5.7,0.5c-0.3,0-0.5-0.1-0.8-0.1c-0.3,0-0.5,0.1-0.6,0.4c0,0.2,0,0.4,0.1,0.5
			c0.7,1.3,1.9,2.3,3.3,2.8c1.3,0.3,2.9,0.2,3.9,1.1C999.5,86.5,998.3,82.2,999.5,81.9z"/>
		<path class="st6" d="M1011.1,81c-0.2,1.2-0.6,2.2-1.1,3.3c-0.4-1.1,0.2-2.4,1.3-2.7"/>
		<path class="st3" d="M1008.9,86.6l0.4,3.5c-1-1-1-2.5,0-3.6l0,0L1008.9,86.6z"/>
		<path class="st3" d="M1011.1,82l0.3,0c-0.6,1.2-1.4,2.2-2.4,3.1c-0.1-0.7,0.2-1.5,0.8-2s1.3-0.7,2-0.6L1011.1,82z"/>
		<path class="st6" d="M1004.5,84.6l0.2-0.5"/>
		<path class="st12" d="M1004,82.9l0.1-0.3c-0.5,1-0.7,2.2-0.5,3.4c-0.7-0.2-1.2-0.6-1.5-1.3s-0.2-1.4,0.3-1.9
			c0.5-0.5,1.3-0.5,1.8-0.1L1004,82.9z"/>
		<path class="st13" d="M961.3,118.5c-0.1,0.8-0.4,1.6-0.6,2.3c-0.3,0.8-1.1,1.2-1.9,1.2c0.2-1.2,0.5-2.4,0.9-3.5
			c0.6-1.5,1.8-2.6,3.4-3.2C962.1,115.7,961.6,117.4,961.3,118.5z"/>
		<path class="st13" d="M960.5,128.7c-0.6,0.8-1.1,1.7-1.3,2.6c-0.4,1.1-0.4,2.2-0.2,3.2c0.3,1.5,1.7,3.7,3.4,3.6
			c-0.1-1.1-1.3-2.2-1.8-3.3C959.6,132.8,959.6,130.6,960.5,128.7z"/>
		<path class="st13" d="M965.4,115.5c-2.5-0.6-4.7-2.1-7.1-3.1c-2.4-1-5.2-1.4-7.5-0.2c-1.8,1-2.7,3.1-3.3,5
			c-0.7,2.3-1.2,4.7-1.1,7.1c-0.3-5.4,0.1-10.9,1.5-16.2l10.6,2.7c1.3,0.3,3.5,0.5,4.5,1.3S964.5,114.7,965.4,115.5z"/>
		<path class="st5" d="M992.7,132.9l-1.4,3.6c1-0.3,1.7-0.8,2-1.8c0.3-0.5,0.3-1.1,0-1.6c-0.2-0.3-0.8-0.5-1.2-0.2
			c-0.1,0.1-0.1,0.1-0.2,0.2L992.7,132.9z"/>
		<path class="st5" d="M994.7,129.9c-0.1-1,0.3-1.9-0.2-2.9c-0.5,1.2-0.2,2.7,0.8,3.6l0.2-0.9L994.7,129.9z"/>
		<path class="st5" d="M993.2,130.1c0.7,0,1.4-0.6,1.5-1.4s-0.3-1.5-1-1.9c-0.9-0.3-1.8-0.2-2.4,0.5c-0.5,0.7-0.5,1.7,0.1,2.4
			c0.6,0.6,1.7,0.7,2.4,0.2c0.7-0.6,0.9-1.6,0.4-2.4c-0.7-0.8-1.8-1-2.7-0.3c-0.1,0.1-0.1,0.1-0.2,0.2c-0.7,0.9-0.4,2.2,0.5,2.8
			l0.1,0c1,0.5,2.3,0.1,2.8-0.9l0,0c0.5-1,0-2.2-1.1-2.8c-1.1-0.5-2.4-0.1-2.9,1.1c-0.5,1.1-0.1,2.4,1.1,2.9c0.1,0,0.3,0.1,0.4,0.2
			l0.6-0.3c-0.3,0.9-0.5,1.7-0.4,2.7l0.2-0.3c-0.3-0.4-0.8-0.4-1.3-0.1l-0.1,0.1c-0.3,0.5-0.5,0.9-0.4,1.4c0,0.6,0.3,1.2,0.7,1.6
			c0.7,0.4,1.7,0.1,2.1-0.7c0.5-1,0.1-2.2-0.9-2.8c-0.1,0-0.2-0.1-0.3-0.1c-1.1-0.3-2.2,0.5-2.4,1.5c0,0.1,0,0.3-0.1,0.4
			c0,1.1,1,2,2.1,1.9c0.1,0,0.2-0.1,0.4,0c1-0.4,1.5-1.4,1.3-2.4c-0.4-1-1.4-1.5-2.4-1.3c-0.6,0.2-1.1,0.6-1.2,1.3
			c-0.3,1,0.4,2.1,1.3,2.3c1,0.3,2.1-0.4,2.3-1.3c0.3-1-0.4-2.1-1.3-2.3c-0.3,0-0.7-0.1-1,0c-1.1,0.3-1.7,1.5-1.3,2.5
			c0,0.1,0.1,0.1,0.1,0.2c0.3,0.6,0.7,1,1.4,1.1c0.6,0.1,1.2-0.1,1.7-0.5c1.2-1.1-1-2.5-0.2-3.9L993.2,130.1z"/>
		<path class="st12" d="M989.2,129.8c-0.5,1-0.6,2.1-0.6,3.2c-0.9-0.3-1.3-1.3-1-2.3c0.3-0.8,1-1.2,1.8-1.1L989.2,129.8z"/>
		<path class="st11" d="M984.1,130.8c0-0.4-0.2-0.7-0.3-1.1c-0.3-0.2-0.5-0.4-0.9-0.5c-2.1-0.5-4.3-0.4-6.3,0.4
			c-0.7,0.3-1.1,0.8-1.4,1.6c0,0.8,0.4,1.6,1,2.2l1.9,2.2c0.9-1.1,1-2.7,0.3-3.9c0.5,0.6,1.3,1,2.1,0.9c0.8,0,1.5-0.1,2.3,0
			c1,0.3,1.8,0.5,2.8,0.9C984.8,132.7,984.3,131.7,984.1,130.8z"/>
		<path class="st14" d="M922.4,119.6c-19.6-5.1-39.9-8.2-60.1-6.3c-1.5,0.1-3,0.4-4.5,0.9c-1.5,0.5-2.7,1.6-3.4,2.9
			c0.8-3.4,1.1-7.1,2-10.5c0.1-0.6,24.6,3.9,26.8,4.3c8.9,1.5,17.7,3.2,26.5,5.2C914,117,918.2,118.1,922.4,119.6z"/>
		<path class="st15" d="M925.8,46.9c-13.6-3.1-27.2-5.7-41-7.9c-3-0.5-6.1-0.9-8.9,0.2c-2.6,1-4.6,3.3-5.1,6.1
			c0.3-1.1-0.7-6.7,1.1-15c21.9,3.9,45.2,11,66.1,18.7c4.7,1.8,10.6,3.6,14.1,7.3C943.7,51.7,935.1,49,925.8,46.9z"/>
	</g>
	<g id="Layer_2-2">
		<path class="st2" d="M1291,680c0.2,2.1,1.2,4.1,1.1,6.2c-0.2,2.4-1.8,4.4-3.3,6.3c-2.1,2.4-3.8,5-5,7.9c-1.3,2.9-1.2,6.3,0.1,9.2
			c2.2,4.1,7.3,5.7,11.4,3.5c0.6-0.3,1.1-0.7,1.6-1.1c3.2-2.7,3.9-7.5,6.3-11c0.7-1.2,1.9-2,3.3-2.2c1.1-0.1,2.2,0.5,3.3,0.4
			c1.1-0.3,2.1-1,2.7-2c3-3.7,5.8-7.6,8.2-11.8c1.3-2.2,2.6-4.9,1.7-7.3c-0.8-2.2-3-3.5-5.2-4.4c-4.3-1.7-9-2.4-13.7-2
			c-2.1,0.3-4.1,0.3-6.2,0c-1.6-0.2-3.1,0.4-4.1,1.7C1291.6,675.1,1290.8,677.5,1291,680z"/>
		<path class="st16" d="M1107.9,982.9l17.1,5.1l3.4-6.7c-1,2.5,0.2,5.4,2,7.4c2,1.8,4.4,3.2,6.9,4.1l36.8,16
			c2.9-4.9,1.2-11.4-2-16.1c-3.2-4.8-7.6-8.5-11-13.2c-3.6-5.1-5.7-11.1-6-17.4c0,1-21.3-0.9-23.2-1.2c-1.9-0.3-4-0.7-5.9-1.1
			c-1.3-0.3-3.5-1.3-4.7-0.7s-2.2,3.4-2.9,4.7l-3.1,5.7L1107.9,982.9z"/>
		<path class="st16" d="M1177.3,1010.7l13.1,6c0.9,0.5,1.8,0.8,2.8,0.8c2.4,0.1,4.2-2.2,5.6-4.2c-0.7,2.1-0.3,4.4,1.2,6.1
			c1.3,1.2,2.8,2.2,4.5,2.8l40.7,17.5c-3.2-6.2-0.4-14.2-3.7-20.4c-2.1-4.1-6.5-6.5-9.7-9.8c-5-5.2-7-12.4-9-19.2
			c-7.7-1.3-15.6-2.1-23.4-2.3c-2.6-0.1-7.5-1.1-9.6,0.6c-1.2,1-2,3.5-2.8,4.9l-3,5.4C1183.4,999.8,1177.4,1010.8,1177.3,1010.7z"/>
		<path class="st17" d="M1097.3,882c6.1,9.6,16.6,16.7,26.9,21c13.1,5.6,27.3,2.9,40.6-1.1c16.1-4.9,31.7-11.3,46.7-19
			c15.1-7.7,29-17.7,44.1-25.4c8.5-4.3,15.9-5.4,25.2-3.7c7.7,1.3,15.2,4.2,23,5.1c0.3,0,0.5-0.2,0.5-0.4s-0.1-0.4-0.3-0.5
			c-10.9-4.1-24.2-8.4-36-7.4c-6.8,0.6-13,4.3-18.9,7.7c-7.2,4.1-14.2,8.7-21.3,13c-14.1,8.5-28.9,15.8-44.2,21.9
			c-15,6-32.7,13.3-49.2,11.2c-7.3-0.9-14.4-4.8-20.6-8.6C1107.5,891.9,1101.6,887.8,1097.3,882
			C1097.3,881.9,1097.3,881.9,1097.3,882L1097.3,882z"/>
		<path class="st16" d="M1301.9,677.7c-1.1,0.8-2.5,1.3-3.8,1.3c-0.7,2.6-1.2,5.2-1.5,7.9c-0.2,2.7,0.3,5.4,1.5,7.8
			c1.9,3.2,5,5.4,8.7,6.1c1.2,0.3,2.5,0.3,3.8,0c2.4-0.7,4.1-2.8,5.4-4.9c-2,0.6-4,0.7-6.1,0.5c-0.6,0-1.1-0.2-1.6-0.4
			c-0.5-0.3-0.8-0.7-0.9-1.3c0-1,0.8-1.7,1.8-1.8c0.9,0,1.8,0.3,2.6,0.9c0.7,0.6,1.5,1.1,2.4,1.4c0.9,0.3,1.9,0.1,2.5-0.6
			c0.5-1,0.3-2.2-0.5-2.9c-1.2-1-2.7-1.5-4.3-1.4c-1.5,0.1-3.1-0.1-4.6-0.4c-2.3-0.9-4.1-2.7-4.9-5s-1.2-4.6-1.3-7L1301.9,677.7z"/>
		<path class="st18" d="M1201.1,833.7l-1.2,16.8c-0.1,2.3-0.4,4.6-1.1,6.9c-1,2.3-2.3,4.4-3.8,6.3c-9.4,12.3-19.6,23.8-30.1,35.2
			l-54.5,59.8l57.3,9.7l22.5-30.1l-7,52.2l49.9,6c3-24.9,6.3-49.7,9.1-74.7c1.5-13,2.9-26,4.4-39c0.3-3.8,1.1-7.6,2.2-11.3
			c2.5-7.3,7.8-13.2,12.4-19.4c14.3-19.4,21.5-43.2,20.6-67.3c-19.8-1.7-38.9-7.7-56.3-17.4c-8.6,10.8-15,23.3-18.8,36.6
			C1203.8,813.6,1201.9,823.6,1201.1,833.7z"/>
		<path class="st19" d="M1309.3,678.1c1.7,0,3.4,0.4,4.8,1.3c0.2,0.1,0.3,0.2,0.3,0.4s-0.3,0.4-0.6,0.4c-0.2-0.1-0.5-0.2-0.7-0.4
			c-0.1-0.3-0.5-0.4-0.8-0.3c-0.3,0.1-0.4,0.5-0.3,0.8l0,0c0,0.2,0,0.4-0.1,0.7c-0.2,0.5-0.7,0.7-1.1,0.5l0,0
			c-0.5-0.2-0.7-0.7-0.6-1.2s0.5-0.8,0.9-0.9l-1.9-0.3c-0.2,0-0.5-0.1-0.6-0.3s0-0.5,0.2-0.6s0.5-0.2,0.7-0.2L1309.3,678.1z"/>
		<path class="st2" d="M1208.8,740.5c0.6,3.1,1.6,6.1,2.9,9l14,33.5l11.3-1.5c2.6-0.4,5.5-0.6,7.4,1.1c1.1,0.9,1.6,2.2,2.6,3.2
			c1,0.9,2.8,1.3,3.6,0.2c0.5-0.8,0.4-1.9-0.2-2.7c-0.6-0.7-1.4-1.3-2.2-1.8c-6.5-4.5-9.5-12.5-11.7-20.1s-4.1-15.7-9.5-21.5
			c2.4,2.1,6.6,2,8.6-0.5c1.1-1.6,1.6-3.5,1.2-5.4c-0.7-4.8-5.4-14-10.8-15c-6.1-1.2-12.9,5-15.4,9.9
			C1208.9,732.4,1208.2,736.5,1208.8,740.5z"/>
		<path class="st16" d="M1317.6,681.1l3.1,1.7c0.4,0.2,0.8,0.5,1,0.8c0.3,0.4,0.2,0.9-0.1,1.2c-0.3-0.3-0.6-0.5-0.9-0.7
			c-0.4-0.2-0.8-0.2-1.2-0.1c-0.3,0.2-0.6,0.4-0.8,0.7c-0.2,0.3-0.5,0.5-0.8,0.6s-0.7,0-0.9-0.3c-0.2-0.4,0.2-0.8,0.5-1.1
			s0.7-0.7,0.5-1.1c-0.2-0.4-1.3-0.4-1.4-1c-0.1-0.4,0.3-0.7,0.6-0.8c0.4,0,0.8,0.1,1.1,0.3L1317.6,681.1z"/>
		<path class="st2" d="M1302.5,741.9c-13.1,5.6-16.7,26.5-16.9,40.8c-0.1,6.4,1.5,12.7,3,18.9l3.7,14.7l5.8,23.1
			c0.9,3.5,1.8,7.1,1.5,10.7c-0.3,4.6-2.5,9.2-1.5,13.7c1.2,5.5,6.6,9.1,12.1,7.9c4.7-1,8-5,8.1-9.8c0.1-3.2-1.4-6.2-2.5-9.2
			c-4.4-11.5-5.2-24-6-36.2l-1.2-19.4c0.1-1.6-0.3-3.2-1.1-4.5c-0.9-1.3-3-1.9-4.1-0.8c1.5,0.1,2.9-0.7,3.6-2s1.1-2.7,1.3-4.2
			l3-18.9c0.6-3.9,1.2-7.9,0.1-11.7c-1.5-4.5-5.4-7.9-10.1-8.7L1302.5,741.9z"/>
		<path class="st20" d="M1271.5,694.5c-6.1,0.2-12.1,2.2-17.7,4.6c-11.1,4.6-21.6,10.3-31.4,17.1c6.4,7,11.2,15.2,14.4,24.1
			l17.5-11.4c-7.6,7.1-14,15.4-18.9,24.6c1,7.7,2.4,16.3,8.6,21c2.8,2.1,6.2,3.2,9.5,4.2l20.2,6.2c2.1,0.6,4.5,1.2,6.3,0
			c0.9-0.7,1.7-1.7,2.2-2.7l20.3-36.1l1,9l12.6,2.9c1.7-7.2,3.4-14.5,3.4-21.9s-1.6-15-6-21c-5.2-7-13.5-10.7-21.6-13.4
			c-3.4-1.1-5.6-3-8.7-4.6C1279.6,695.2,1275.6,694.3,1271.5,694.5z"/>
		<path class="st21" d="M1264.9,721.4c-3,3.5-6.9,6-10.8,8.4c-1.6,1-3.2,2-4.8,3c1.1-2.1,5.4-3.7,7.4-5.1
			C1259.4,725.8,1262.7,723.8,1264.9,721.4z"/>
		<path class="st21" d="M1307.2,735.6l-4.3,19.7c-1.5-0.7-3.9-1-3.8-2.8c0-1.4,2.4-3.9,3.1-5.1
			C1304.2,743.7,1306.4,739.6,1307.2,735.6z"/>
		
			<linearGradient id="SVGID_2_" gradientUnits="userSpaceOnUse" x1="1244.3914" y1="263.442" x2="1362.0814" y2="331.382" gradientTransform="matrix(0.8421 0.5392 -0.5392 0.8421 286.618 -42.1321)">
			<stop  offset="4.000000e-02" style="stop-color:#284BF2"/>
			<stop  offset="0.24" style="stop-color:#3055F6"/>
			<stop  offset="0.67" style="stop-color:#3D65FD"/>
			<stop  offset="1" style="stop-color:#426AFF"/>
		</linearGradient>
		<path class="st22" d="M1251.1,809.7c-2.9,56.4-10.5,130.5-19.6,186.2l-46.7-5.8c4.1-35.9,10.4-69.9,14.6-105.8
			c1.8-16-0.5-28.8,3.3-49.9c0.7-4,0.9-8,1.4-12c0.2-2,0.5-4,0.7-6s2.6-16.9,4.8-16.2c2.6,0.8,5.2,1.8,7.6,2.9
			c3.2,1.6,10.1,3,13.5,4.1C1238.3,809.8,1243,809.3,1251.1,809.7z"/>
		<path class="st23" d="M1224.9,738.2c1.4,1.4,3,3.8,4.7,4.7C1230.7,740.7,1226.1,739,1224.9,738.2z"/>
		<path class="st23" d="M1298.5,787.4c2.6,2.3,6,4.6,9.4,5.5c-0.1-2-1.8-2.2-3.4-2.7C1302.6,789.5,1300,788.7,1298.5,787.4z"/>
		<path class="st24" d="M1227.2,784.6l6.6,13.9c0.9,1.9,1.9,3.9,3.7,4.9c1.7,0.8,3.7,0.8,5.4,0.1c1.7-0.7,3.3-1.7,4.8-2.9
			c-0.8-0.7-1.9-1-3-0.7c-1,0.2-2.1,0.7-3.1,0.8c-2.9,0.3-5.5-2-7-4.5s-2.4-5.4-4.2-7.7c-1.6-2-3.9-3.4-6.5-4L1227.2,784.6z"/>
		<path class="st25" d="M1007,909.6c-3.1,1.7-6.7,2.6-9.5,4.6c-3.8,2.6-5.9,6.8-6.8,11.2c-0.9,4.4-0.7,9-0.5,13.6l5.6,2.9l2.6-16.8
			c4.9-0.5,10-1.2,14.2-3.4s7.6-6.1,7.6-10.8c0-2.7,1.5-5.7,0.4-8.3c-0.5-1.2-2.1-3.1-2.7-4.2c-1.5,0.4-4.1,5.3-5.2,6.6
			C1011.2,906.8,1009.2,908.4,1007,909.6z"/>
		<path class="st17" d="M1051,904.9c-4.6-1.8-10.1-2.8-13.1-6.6c-2.4-3.1-2.1-7.6,0.8-9.7c3.3-2.4,8.5-1.2,12.5,0.8
			c6.1,3.1,11,8.1,14,14.2c0.9,1.8,5,16,0.8,14.6c-1.2-0.4-4.7-6.5-6.1-7.7C1057.3,908.1,1054.2,906.2,1051,904.9z"/>
		<path class="st25" d="M1080.6,926.4c2,0.1,4.2-0.4,5.1-1.9c1.1-1.8,0-4.1-1-6.1s-2.6-4.5-5-4.9c-2-0.4-3.7,0.8-5.1,2
			c-1.3,1.3-5.2,5.3-4.2,7.4C1071.6,925.4,1078.4,926.3,1080.6,926.4z"/>
		<path class="st26" d="M1012.7,947.5c-3.7-7-3.9-15.2-0.6-22.4c2.3-4.7,6.2-8.7,7.1-13.9c1.3-7.9-5-16.5-3.5-24.4
			c-3.9,3.5-11.4,1.9-15.2-2.4s-4.5-10.2-3.3-15.3c1.1-4.4,3.7-8.6,8.2-10.2c4.5-1.6,10.8,0.5,12.5,5c-3.8-2.8-9.4-3.3-13-0.8
			c-3.6,2.7-4.4,7.8-1.8,11.5c2.7,3.8,8.8,5.2,12.3,2.7c2.1-1.5,3.2-4.1,4.9-6.1c4.7-5.6,14.1-6.3,22-4s14.9,6.9,22.4,10.5
			c2.7,1.3,5.6,2.5,8.5,2.5s5.9-1.4,6.6-4c0.7-2.4-0.8-5.1-2.6-7.2c-1.8-2.1-3.9-4.1-5-6.5s-0.8-5.7,1.6-6.7
			c1.6-0.7,3.6-0.2,5.4,0.2c5.3,1.4,11.2,3.2,14.2,7.6c1.8,2.6,2.3,5.6,2.7,8.6l2.9,19.4c0.9,6,1.8,12,1.3,17.9
			c-0.9,11-6.4,20.6-10.8,30.5s-7.8,21-4.4,31.9l-12-4.4l11.2-37.4c0.7-2.5,1.5-5.1,0.9-7.7c-0.6-2.6-2.9-5.2-5.7-5.5
			c-2.5-0.2-4.5,1.6-6.1,3.3c-10.6,12-13.9,29.5-8.5,45.5l-12.3-5.4c-1.3-7.8,1-15.5,3.8-22.6s6.3-14.1,7.2-21.7
			c1-7.7-1-16.4-7.2-22.1c-2.1-2-4.7-3.4-7.6-3.8c-2.8-0.4-5.8,0.6-7.1,2.8c-1.6,2.8-0.3,6.5,0.4,9.8c1.2,6.2-0.5,12.7-4.7,17.5
			c-3.1,3.5-7.4,5.8-11.3,8.6s-7.5,6.2-8.6,10.7s1.3,10.3,6.2,12.1l-15-4.8L1012.7,947.5z"/>
		<path class="st17" d="M1077.5,879.1c5.6,3.9,13.9,7.5,20.5,7.8c-0.1-3.5-0.6-7-1.5-10.4c-1,2.2-6.4,5.5-8.9,4.4
			c-2.4-1-3.5-3.7-2.5-6c0.7-1.6,2.4-2.6,3.5-3.9c1.8-2.2,2.8-4.9,1.9-5.8c-1.2,1.1-2.1,3.5-3.3,4.9c-1,1.1-2.3,1.8-3.7,2.2
			C1078.6,873.9,1080.1,878.7,1077.5,879.1z"/>
		<path class="st17" d="M1083.5,860.5l-1.6-1c-0.7,0.1-1.2,0.8-1.1,1.6c0,0.2,0.2,0.5,0.3,0.7c0.6,0.6,1.6,0.7,2.3,0.1
			c0.1-0.1,0.2-0.2,0.3-0.3c0.3-0.9-0.7-2.1-1.7-2L1083.5,860.5z"/>
		<path class="st17" d="M1078.1,855.9c-2.6-0.9-5.4,4.2-5.9,6.5c-0.7-1.8-1-3.6-0.6-4.4c0.2-0.6,0.5-1.1,0.9-1.5
			c0.7-0.8,1.7-1.2,2.7-1.2L1078.1,855.9z"/>
		<path class="st24" d="M1245.1,893l2.1-24.8l1-12.1c0.2-2.4-0.3-9.9,1.5-11.3c0.1,7.8-1.5,16.1-2.3,24L1245.1,893z"/>
		<path class="st24" d="M1199.3,889.8l0.5-21.1l0.3-10.3c0.1-2.1-0.8-8.4,0.6-9.8c0.7,6.5-0.4,13.8-0.7,20.5L1199.3,889.8z"/>
		<path class="st27" d="M1019.2,872.7c-2.6,3.5,0,8.1-2.5,12c-1.9,2.9-1.7,10.3,1,14.7c-1.9-10.1,5.4-11.1,6.4-17.4
			c0.3-1.7,2.4-5.4,3.3-6.8c0.9-1.4,3.7-3.1,4.8-4.3c0.7-0.8,1.5-3.1,0.3-4.3c-1-1-4.6,0.1-5.6,0.4
			C1023.8,868.1,1021.1,870.1,1019.2,872.7z"/>
		<path class="st27" d="M1031.6,903.4c-0.4-0.5-1.1-0.6-1.7-0.4c-0.6,0.2-1.1,0.6-1.5,1.1c-0.8,0.8-1.6,1.7-1.3,2.8
			c0.3,0.8,1,1.3,1.8,1.3s1.5-0.3,2.1-0.8c0.8-0.8,1.2-1.9,1-3.1c-0.2-1.1-0.9-2.1-2-2.7L1031.6,903.4z"/>
		<path class="st27" d="M1026.7,911.4l-0.9-0.4c-2.3,1.1-3.5,3.6-2.8,6.1c0.8,2.4,3.3,3.9,5.9,3.4c1.9-0.5,3.2-2.2,3.3-4.2
			c0-2-1.1-3.8-2.9-4.7s-3.9-0.7-5.6,0.4L1026.7,911.4z"/>
		<path class="st27" d="M1022,921.8c-0.8-1-2.3-1.1-3.3-0.3c-0.1,0.1-0.2,0.2-0.2,0.2c-0.7,1.1-0.4,2.6,0.7,3.3
			c0.1,0,0.1,0.1,0.2,0.1c1.3,0.6,2.8,0,3.4-1.3l0,0c0.4-1.3-0.2-2.8-1.5-3.4L1022,921.8z"/>
		<path class="st27" d="M1063.1,888c1.8,0.7,3.4,1.8,4.8,3.2c1.3,1.4,3.4,3.9,3.3,5.8c-0.1,1.9-1.4,4.3-3.1,4.9
			c-1.7,0.6-6,0.5-6.4-1.3c-0.4-1.5-2.1-3.3-3-4.6c-2.7-4-6.9-5.4-8.9-6.2c-1.4-0.5-4.4-2-0.2-4.8
			C1052.5,883.1,1060.1,886.7,1063.1,888z"/>
		<path class="st27" d="M1084.9,893.7c-2.3,0.9-3.4,3.4-4.1,5.7s-1.4,4.8-3.4,6.3c-0.8,0.6-1.8,1-2.6,1.6c-0.9,0.5-1.4,1.5-1.4,2.5
			c0.2,1.2,1.4,2,2.6,2.6c2.8,1.3,5.9,1.8,9,1.4c3-0.5,5.6-2.5,6.8-5.3c1-2.7,0.3-5.6-0.4-8.4c-0.6-2.4-1.6-5.3-4.1-6
			c-2-0.6-3.9,0.5-5.6,1.5L1084.9,893.7z"/>
		<path class="st27" d="M1079,892.3c-0.1,0.9,0.2,1.8,0.7,2.6c0.7,0.6,1.5-0.3,2.1-0.9c0.6-0.6,1.4-1.1,2.2-1.4
			c1.5-0.7,4.6,1.3,5.7-0.3c0.7-1.1-0.5-2-1.4-2.5C1084.9,887.6,1079.9,888.4,1079,892.3z"/>
		<path class="st27" d="M1062,948.1c0.5-2.5-2.9-5-3-7.6c-0.1-2.1,1.3-4,2.6-5.7c2.2-2.7,4.3-5.4,6.5-8.2c-2,2.9-3.1,6.9-4.2,10.3
			C1062.7,940.5,1062.8,944.4,1062,948.1z"/>
		<path class="st27" d="M1098.9,916.1c-0.9,4.7-3.7,12.7-6.5,16.6c0.4-1.3-0.4-2.9-0.7-4.3c-0.4-1.3-0.6-2.7-0.7-4.1
			c-0.1-1.4,0.5-2.7,1.6-3.6c0.9-0.5,1.8-0.9,2.8-1.1C1096.4,919.3,1098.7,917.1,1098.9,916.1c-0.3,1.6-2,4.8-2.4,6.4L1098.9,916.1z
			"/>
		<path class="st16" d="M1325.6,679.1c-1.8,1.9-6.4,0.3-6.3-2c0.1-1-0.4-0.9,0.2-1.7c-0.6,0.9-2.9-1.7-5.8,0.3
			c-0.6,0.3-1.3,0.4-2,0.2c-2.1-0.4-3.3-2.4-4.2-4.4c0.3,1.1-1.2,3.6-2.3,3.8c-4.1,0.8-5-5-8.2-1.8c-2.7,2.7-5.1,1.5-5.5,0.4
			c-0.2-0.8-0.6-1.7-0.8-2.5c-0.6-2.8,2.2-4.4,4.3-6.4c-0.9-0.9-5.8-5.1-5.4-6.4c0.4-1.3,1.4-2.3,2.7-2.6c-0.7-1.4-0.5-3.1,0.7-4.3
			c1.2-1.1,2.7-1.6,4.3-1.4c1.5,0.2,3,0.8,4.3,1.7c-1.2-1.7-0.8-4,0.8-5.2c1.7-1.2,4-0.8,5.2,0.8c0.4,0.6,0.7,1.3,0.7,2
			c0.3-2.6,7.7-1.8,10.2-1c2.4,0.9,3.7,3.5,2.8,5.9c0,0.1-0.1,0.2-0.1,0.3c1.1-1.7,3.2-2.6,5.2-2.1s3.4,2.2,3.7,4.3
			c0.2,2-0.8,4-2.6,5c1.3-0.8,3-0.4,3.8,0.9c0.8,1.3,0.4,3-0.9,3.8c-0.7,0.4-1.4,0.5-2.2,0.3c2.5,0.7,4.6,4.7,1.5,6
			c-0.3,0.1-0.8,0.1-1.1,0.4c-0.3,0.3-0.3,1.2-0.4,1.7C1327.6,676.7,1326.8,678.1,1325.6,679.1z"/>
		<path class="st17" d="M1305,863.7C1305,863.7,1305,863.6,1305,863.7C1305,863.6,1305,863.6,1305,863.7
			C1305,863.6,1304.9,863.6,1305,863.7C1304.9,863.6,1305,863.7,1305,863.7z"/>
		<path class="st28" d="M1320.6,696.1c1.3,0.4,2.6,0.4,3.9,0.2c1-0.3,2.6-3.8,3.5-3.4c2.8,1.2,4.4,2.7,6.6,2.2
			c-0.1,1.5-0.4,2.9-1,4.3c-0.5,1.3-1.6,2.3-3,2.5c-1.8,0.3-3.8-0.4-5.6-1.1c-4.4-1.7-9.4-3.3-13.6-5.4c-0.7-0.4-1.2-0.5-0.4-1
			c0.7-0.4,1.9,0.2,2.6,0.3L1320.6,696.1z"/>
	</g>
	<g id="Layer_3">
		<path class="st2" d="M340.4,158.8c1.2,0.7,2.6,1,4.1,0.9c1.5,0.1,3.1,0.1,4.6,0c1.1,0.1,2.3-0.2,3.3-0.7c1.3-0.9,0.7-2.5,0.6-4.1
			s0.2-3-0.5-4.4c2.3,0.8,4.8,0,6.3-1.9c1.4-1.9,2-4.3,1.7-6.7c-0.3-2.3-0.9-4.6-1.9-6.8l-2.4-6.7c-0.9-2.5-2-5.1-4.3-6.5
			s-4.8-1-7.3-0.5c-2.9,0.4-5.8,1.3-8.5,2.6s-4.8,3.6-6,6.3c-1.4,3.7-0.4,8,1.5,11.5c1.6,3,4.5,5.7,5.5,9
			C338.1,153.6,337.6,157,340.4,158.8z"/>
		<path class="st29" d="M311,123.7c0.4,1,1.1,1.9,1.9,2.6c1.7,1.4,3.9,1.8,6,1.2c2.1-0.6,3.8-2.1,4.6-4.1c1.7-4.1-1.2-10.4-6.1-10.4
			S309.2,119.5,311,123.7z"/>
		<path class="st30" d="M344.2,239c20.2,0.2,38.4-7.8,53.4-21.2l34.6,49.9l18.6,26.7l47.7,68.6c11.1,16,22.2,32,33.8,47.6
			c-22.7,7-45.5,13.3-68.2,20.2c-17.8-44.4-43.3-85.4-75.3-120.9c-18.6,55.7-49,106.7-89,149.7l-32.7-43.9
			c35.2-35.3,60.7-85.3,70.3-133c0.9-4.7,1.7-9.3,2.4-13.9c0.6-4.4,1.1-8.8,1.4-13.1C341.4,249.6,344.1,244.9,344.2,239z"/>
		<path class="st31" d="M355.5,158.6c-4.8,0-15.9-1.1-20.8-1.1c1.9,2.6,9.6,6.8,9.8,10c0.3,3.3-1.2,6.5-3.9,8.5
			c-2.7,1.8-6.8,1.5-8.9-1l-6.2,7.3c9.6,5.3,5.7,7.8,15.4,13c-3.3,6.3,0.5,8.5-1.2,15.4c-1,4,1.9,11.3,3,15.3c2.3,8.2,1.9,17-1.1,25
			c3.3-3.5,57.5-19.9,62.6-21.9c-4.9-5-10.8-9.4-12.5-16.1c-1.6-6.4-3-11.9-5.4-19.7c-0.9-2.8,1.1-5.7,1.2-8.6c0-3-1.3-5.8-3.5-7.7
			c-2.1-2-5.3-2.5-8.1-3.4c-7.4-2.4-19.7-7.5-21.5-15c-5.3,2.7,1.9,0.1,0.5,0.1L355.5,158.6z"/>
		<path class="st2" d="M311.6,214.8c-1.9,3-3.9,6.1-4.8,9.5s-0.7,7-0.4,10.6c0.7,10.6,1.3,21.2,2,31.7c0.1,1.8,0.7,3.7,0.7,5.4
			c0.1,2.4-1,5.1-1.5,7.5l-3.6,15.8c-0.8,3.5-1.5,7.6,0.8,10.5c1.7,2.2,4.9,2.8,7.3,1.3c2.2-1.6,2.3-5.5,0-6.9l3.4,3.5
			c3-2,3.9-6,3.6-9.6s-1.6-7-2.1-10.5c-0.7-5.1,0.5-10.3,1.6-15.3c2.9-13.2,4.1-27.5,11.6-38.6c7.4-11.1,15.6-21.8,24.3-31.9
			c-4.7-2.5-8.5-5.1-13.2-7.5l-7.2-3.8c-3-1.6-3.2-1.6-5,1.2C323.2,196.7,317.4,205.7,311.6,214.8z"/>
		<path class="st29" d="M342.2,183.5c4.8-1,8-7.9,6.1-12.4c-1-2.4-3.1-4.2-4.9-6.2s-3.3-4.6-2.7-7.2s3-4.6,2.8-7.1s-2.6-4.3-4.7-5.6
			s-4.4-3.5-4-6c0.3-1.9,2.1-3.2,3.7-4.2l4.3-2.8c1-0.7,2-1.3,3.1-1.9c4.3-2.4,9.2-3.5,14-3.1c-2.4-2.7-4.8-5.4-7.3-8.1
			c-1.8-1.8-4-3.1-6.5-3.8c-9.5-3.5-20.1,1.4-23.6,11c-1.2,3.4-1.5,7.1-0.6,10.6c0.9,3.7,2.9,7.3,2.4,11c-0.9,6.8-9.8,10.8-10,17.7
			c-0.2,5.3,4.8,9.5,5.2,14.8c0.1,2.3-0.6,4.6-1.9,6.5c-1.3,2-2.9,3.9-3.4,6.3c-0.6,3.7,1.8,7.3,5.5,8l10.3-14.6l-4.8-4.3
			c1.1-1.4,2.3-3.7,3.3-2.3c4.3,5.7,6.3,3.9,10,4.5C338.5,183.8,342.4,183.9,342.2,183.5z"/>
		<path class="st2" d="M403.2,228.3c1.7,1.7,3.8,3,6,3.9c3.2,1.2,6.8,0.9,9.7-1c3.7-2.5,5.1-7.2,6.1-11.6c2.6-11.5,3.9-23.2,3.9-35
			l-10.7,1.9l-0.9-4.1l-8.3,26.1l-11.2-9.2c-3.6-2.9-7.1-6.6-11.1-9c-1.1,1.6,0,6,0.2,7.9c1.2,8.4,4.5,16.3,9.6,23.1
			C398.6,223.9,400.8,226.2,403.2,228.3z"/>
		<path class="st32" d="M412,145.2c2-4.9,7.7-7.3,12.6-5.3c1.1,0.4,2.1,1.1,2.9,1.9l4.4-0.5l4.3,42.5c-6.3,0.3-12.5,1.5-18.5,3.7
			c-1.5-7.1-3.2-14.2-5.1-21.2c-1-3.5-2-6.9-3-10.4c-0.9-3-2.9-6.7-3.1-9.8C407.5,146,411.5,146.3,412,145.2z"/>
		<path class="st2" d="M436.7,158.6l-14.2,1c-0.9,0-1.7,0.2-2.5,0.6s-1.1,1.4-0.7,2.2c0.5,0.8,1.7,0.8,2.6,0.7l8.8-1l-8.5,2.6
			c-0.9,0.2-1.8,0.6-2.5,1.2c-0.7,0.6-0.9,1.7-0.5,2.5c4.3,0.6,8.8,0.3,13-0.8c-3.5,0.7-6.9,2.1-9.8,4.2c-1,0.7-2,1.8-1.6,3
			c0.5,1.3,2.4,1.1,3.8,0.8l7.1-2.1c-1.5,0.4-2.9,1.3-3.8,2.6c-0.3,0.3-0.5,0.7-0.5,1.1c0,1.1,1.4,1.8,2.5,1.8
			c5.2,0.4,10.2-3.9,11-9s-2.3-10.5-6.9-12.9L436.7,158.6z"/>
		<path class="st2" d="M410.4,158c-0.5-0.8-1.3-1.5-2.2-2c-0.9-0.4-2-0.1-2.6,0.8c-0.4,0.9,0.2,2,1,2.7s1.8,1.4,2.7,2.2
			c0.9,0.7,1.6,1.8,1.9,2.9c-0.2-2.9-0.9-5.7-2.2-8.3L410.4,158z"/>
		<path class="st33" d="M307.7,324.6l31.9,21.1c-8.3,4.4-13.8,12.7-18.1,21s-8,17.2-14,24.3s-15.3,12.5-24.6,11
			c-6.2-1-11.4-4.9-16.4-8.7l-20.3-15.4c-7.4-5.7-15.5-12.3-16.7-21.5c-1.1-8.6,3.9-16.6,8.8-23.8c7.4-10.8,14.3-22.1,22.1-32.6
			c4.3-5.7,8.5-1.1,13.2,2c2.7,1.8,4.9,4.4,7.6,2.9c2.4-1.3,4.4-4.8,6.8-6.4c5-3.5,11.1-5.3,17.2-5.1c9.7,0.4,19,6.7,22.6,15.6
			s0.9,20.3-6.8,26.2c2.9-6.1,5.9-12.3,6.7-18.9s-0.8-14-5.8-18.5c-4-3.6-9.8-4.9-15.2-4.6s-10.7,1.9-15.8,3.6
			c-3.2,1-10.7,3.3-10.9,7.7c-0.1,3.6,7.2,6.5,9.7,8.2C295.7,316.7,301.6,320.8,307.7,324.6z"/>
		<path class="st2" d="M285.2,436.6c-5.7,2.8-8.4,6-11.4,11.6c-2.5-7.4-9.1-12.8-16.9-13.7l17.1-10.6C279,426.4,282,432,285.2,436.6
			z"/>
		<path class="st29" d="M247.3,455.2c2.1,1.6,4.2,3.5,6.8,3.8s5.6-2.2,4.7-4.7c0.4,5.5,4.7,10,9.6,12.5s10.4,3.3,15.8,4.4
			s10.9,2.4,15.2,5.8c0-4.8-3.4-8.8-6.8-12.1s-7.2-6.6-8.6-11.2c-1-3.3-0.7-7-2.6-9.8c-1.8-2.6-5-3.8-8-4.8l-14.6-4.8
			c-1.1-0.5-2.2-0.6-3.4-0.5c-1.6,0.3-2.8,1.8-3.7,3.2c-3.4,4.9-7.7,9.8-10.3,15.1C243.3,453,245.4,453.7,247.3,455.2z"/>
		<path class="st29" d="M506.2,458.8c2.6-0.2,5.5-0.3,7.5-1.9c2-1.6,2.6-5.4,0.2-6.6c4.1,3.7,10.3,4.1,15.5,2.5s9.9-4.7,14.5-7.6
			s9.6-5.7,15-6.2c-3.3-3.4-8.5-4-13.3-4.1s-9.8,0.1-14-2.2c-3-1.7-5.3-4.6-8.6-5.3c-3.1-0.7-6.2,0.7-9.1,2l-14,6.5
			c-1.1,0.4-2.1,1.1-2.8,2c-1,1.4-0.8,3.2-0.5,4.9c0.9,5.9,1.2,12.4,2.9,18.1C501.8,459.9,503.8,459,506.2,458.8z"/>
		<path class="st2" d="M498.8,435.9l18.7-8.4l-5.6-10.6l-9.7,2.4c-2.1,0.5-7.8,0.8-9.3,2.4C490.7,424,497.7,433.3,498.8,435.9z"/>
		<path class="st29" d="M336.2,237.3c-0.6,4.9-1.9,9.7-1.9,14.7s1.6,10.1,5.6,13.1c-1.2-4.3,0.1-8.9,2-12.9s4.1-8,5-12.3
			c1.1-5.5-0.1-11.2-1.3-16.7l-2.6-11.8c-2.4,3.5-6.9,8-7.3,12.4S336.8,232.7,336.2,237.3z"/>
		<path class="st31" d="M342.8,272.8c5.8-5.1,14.2-12.9,13.6-21.5c-2.2,2.8-2.5,7.4-4.2,10.7C349.9,266.5,346.5,269.4,342.8,272.8z"
			/>
		<path class="st29" d="M388.6,309.4l9.1,10.9c-0.5-19.7-0.9-39.4-1.6-59.1c-0.4,7.6-0.9,15.1-2,22.6c-0.6,4.3-1.4,8.6-2.3,12.9
			C391.4,298.2,387.9,308.6,388.6,309.4z"/>
		<path class="st29" d="M356.1,205.4c0.9-5.3,2.1-10.6,3.6-15.8l-3.3,5.3c-1.1,1.7-3,3.5-3.8,5.3c-0.8,1.6-0.8,1.1,0.6,2.5
			C354,203.7,355.1,204.5,356.1,205.4z"/>
		<path class="st29" d="M348.7,204.7c-2.4,3.6-3.9,7.7-4.6,12c-0.7-2.3-1.8-4.1-0.5-6.2S347.4,206.8,348.7,204.7z"/>
		<path class="st34" d="M395.7,247.3c11.3,33.9,23.3,67.5,35.2,101.2l15.3,43.2c-12.5-21.5-25.1-43-40.6-62.4
			c-2.5-3.2-5.2-6.3-6.7-10.1c-1.6-4.1-1.7-8.5-1.8-12.9c-0.3-15.6-0.6-31.1-0.7-46.7C396.5,255.5,396,251.4,395.7,247.3z"/>
		<path class="st35" d="M410.2,218.6c-0.4-2.8,1.3-7.6-1.1-9.7C408.8,211.9,409.8,215.5,410.2,218.6z"/>
		<path class="st35" d="M352.8,150.9l-4.5-1c2.4,2.3,4,5.2,4.9,8.3l-0.6-7.5L352.8,150.9z"/>
		<path class="st29" d="M345.9,134.5l6-2.6c-1.3,1.6-3.2,2.6-5.3,2.8L345.9,134.5z"/>
		<path class="st29" d="M354.7,131.1c1.3-0.8,2.9-1,4.4-0.6c-1.3,0.9-2.8,1.3-4.4,1l0.8-1L354.7,131.1z"/>
		<path class="st12" d="M352.7,142.8c1.7,0,3.4-0.8,4.6-2c0.4,0.8,0.4,1.8,0,2.6s-1.3,1.3-2.2,1.2c-0.9-0.1-1.6-1-1.5-1.9
			L352.7,142.8L352.7,142.8z"/>
		<path class="st29" d="M275.5,406.2c5.3,1.6,10.9,2.4,16.3,1.2c7.9-1.7,14.4-7.6,18.8-14.4s7-14.5,9.9-22.1s3.2-9.3,8.5-15.4
			c-6.8,11.4-10.7,17-17.4,28.5c-2.9,4.9-5.9,10-10.5,13.5c-3.9,3-8.6,4.7-13.5,4.8c-2.1,0.1-4.9-1.1-6.9-0.6
			S276.9,404.9,275.5,406.2z"/>
		<path class="st16" d="M528.7,434.4c0.3-1.9,0.4-3.9,0.2-5.8c-0.2-1.1-0.1-2.3,0.2-3.4c0.4-0.7,0.9-1.3,1.6-1.7
			c0.2-0.2,0.5-0.3,0.7-0.3c0.8-0.2,1.5,0.5,1.8,1.2c0.6,1.5,0.6,3.2-0.2,4.7c-0.7,1.5-1.6,2.8-2.7,4l1.8-2.4c1.5-2,3.2-4.2,5.6-4.8
			c0.3-0.1,0.6-0.1,0.9,0c0.3,0.1,0.5,0.3,0.6,0.5c0.7,0.6,1,1.5,1,2.4c-0.2,1.3-1.6,2.1-2.8,2.6l-8.2,3.5L528.7,434.4z"/>
		<path class="st16" d="M281.7,450.8c1.1-1.9,2.2-3.8,3.5-5.6c0.3-0.5,0.6-0.9,1-1.2c1-0.7,2.1-1,3.3-1c0.7-0.1,1.3,0,1.9,0.3
			c0.6,0.5,0.8,1.3,0.6,2.1c-0.4,2.2-2.2,3.9-4.2,4.9c-2.1,0.8-4.2,1.6-6.4,2.2l5.3-0.6c1.7-0.2,3.3-0.3,5-0.1s3.3,0.9,4.5,2.1
			c0.7,0.7,1.1,1.8,0.9,2.8c-0.4,1.1-1.5,1.8-2.6,1.9c-1.1,0-2.3-0.2-3.3-0.6l-10.2-3.4L281.7,450.8z"/>
	</g>
</g>
</svg>
