<?xml version="1.0" encoding="utf-8"?>
<!-- Generator: Adobe Illustrator 24.0.1, SVG Export Plug-In . SVG Version: 6.00 Build 0)  -->
<svg version="1.1" id="Layer_1" xmlns="http://www.w3.org/2000/svg" xmlns:xlink="http://www.w3.org/1999/xlink" x="0px" y="0px"
	 viewBox="0 0 144.7 134.8" style="enable-background:new 0 0 144.7 134.8;" xml:space="preserve">
<style type="text/css">
	.st0{fill:url(#SVGID_1_);}
	.st1{fill:#C44123;}
	.st2{fill:#EB6841;}
	.st3{fill:#821F0F;}
	.st4{fill:#42B5EB;}
	.st5{fill:#1286BC;}
	.st6{fill:#B56C1C;}
	.st7{fill:#E27C17;}
	.st8{fill:#F3C891;}
	.st9{fill:#CA8226;}
	.st10{fill:#FFD298;}
	.st11{fill:none;}
	.st12{fill:none;stroke:#FFDEBB;stroke-width:0.25;stroke-miterlimit:10;}
</style>
<title>Asset 4</title>
<g id="Layer_2_1_">
	<g id="Layer_1-2">
		<g id="Layer_2-2">
			<g id="Layer_5">
				
					<linearGradient id="SVGID_1_" gradientUnits="userSpaceOnUse" x1="54.7758" y1="1001.2747" x2="91.703" y2="871.6313" gradientTransform="matrix(1 0 0 1 0 -872)">
					<stop  offset="0" style="stop-color:#DD8900"/>
					<stop  offset="0.5705" style="stop-color:#DCA73C"/>
					<stop  offset="1" style="stop-color:#DBBC65"/>
				</linearGradient>
				<path class="st0" d="M0.1,0v134.8h144.6V0H0.1z M66.8,67.8L66.8,67.8L66.8,67.8z M69.3,69.2L69.3,69.2z M69.7,69.1L69.7,69.1z
					 M72.6,54.3L72.6,54.3z M74.8,64.2L74.8,64.2C74.9,64.3,74.9,64.2,74.8,64.2L74.8,64.2z M75.2,65.2L75.2,65.2L75.2,65.2
					L75.2,65.2z"/>
				<path class="st1" d="M113.7,60.7h-6.2c-0.6,0-1.2-0.2-1.6-0.5l-1.5-1.4c-0.3-0.3-0.1-0.5,0.5-0.5h6.1c0.6,0,1.2,0.2,1.6,0.5
					l1.5,1.4C114.5,60.5,114.3,60.7,113.7,60.7z"/>
				<path class="st2" d="M111.3,58.5H105c-0.7-0.1-1.3-0.5-1.7-1.2l-1.5-3.1c-0.3-0.6-0.1-1.2,0.5-1.2h6.2c0.7,0.1,1.3,0.5,1.7,1.2
					l1.5,3.1C112.1,58,111.9,58.5,111.3,58.5z"/>
				<circle class="st1" cx="106.9" cy="55.7" r="0.4"/>
				<path class="st1" d="M86.6,24.9l3.9,3.1l4.2,0.3L89,35.5l-3.9-0.7l-3.8-3C81,31.6,80.8,31.2,81,31l4.8-6.1
					C85.9,24.7,86.3,24.7,86.6,24.9z"/>
				<path class="st3" d="M81.6,31l4.5-5.6c0.1-0.2,0.4-0.2,0.6-0.1l3,2.4c0.2,0.1,0.2,0.4,0.1,0.6l-4.5,5.6
					c-0.1,0.2-0.4,0.2-0.6,0.1l-3-2.4C81.5,31.5,81.4,31.2,81.6,31z"/>
				<path class="st3" d="M86.4,34.5l0.9,0.2c0.1,0,0.2,0,0.2-0.1l4.5-5.7c0.1-0.2-0.1-0.4-0.3-0.4l-1-0.1c-0.1,0-0.1,0-0.2,0.1
					l-4.4,5.6C86.1,34.3,86.2,34.5,86.4,34.5z"/>
				<path class="st4" d="M144.7,57.5v29l-12.6-9l1.3-10.3l7.3-10.3c0.6-0.9,1.6-1.3,2.1-0.8L144.7,57.5z"/>
				<path class="st5" d="M144.7,59.2v14.7l-9.4-6.8c-0.2-0.2-0.3-0.5-0.1-0.7l6.4-8.8c0.2-0.2,0.5-0.3,0.7-0.1L144.7,59.2z"/>
				<path class="st5" d="M144.7,76.9v4.5L134,73.7c-0.2-0.1-0.2-0.3-0.2-0.5l0.4-2.5c0.1-0.6,0.7-0.9,1-0.7L144.7,76.9z"/>
				<path class="st6" d="M70.8,54.6c-0.7-0.1-1.3,0.4-1.4,1l-0.1,0.6l-0.9,4.4l-1.8,10c-0.2,0.7,0.3,1.3,1,1.5l0,0l1.8,0.4l2.8,0.5
					l-0.1-0.1l-2.6-0.5L67.4,72c-0.7-0.2-1.1-0.8-1-1.5l0,0l1.9-10.3l0.7-3.7l0.2-0.9c0.2-0.7,0.8-1.1,1.5-1l0,0L70.8,54.6z"/>
				<path class="st7" d="M76.2,57.8L76.2,57.8L76.2,57.8L74.3,68l-0.6,2.7l-0.1,0.2l0,0.3l-0.2,0.1l0.1-0.1
					c-0.5,0.6-3.1-0.1-3.1-0.1l-0.2,0l0-0.1l-1.4-0.2l-0.1-0.1l-0.5-0.1l0,0c-0.1-0.1-0.2,0-0.2,0l-0.1,0l-0.2,0l-0.1-0.1
					c-0.4-0.2-0.6-0.7-0.6-1.2l0.1-0.1l1.5-8.2l0,0l0.7-4c0.1-0.1,0-0.2,0.1-0.3l0,0l0.1-0.1l0.1-0.1l0,0l0.1-0.1l0,0l0.1,0l0,0
					l0.1,0l0,0l0.1,0l0,0l0.1,0l0,0l0,0l0.1-0.1l0,0l0.1-0.1L70,56L70,56l0.1,0l0,0l0,0c0.2-0.1,0.4-0.2,0.6-0.1l0.1,0.1l0,0
					l1.9,0.4l2.4,0.5c0.1,0.1,0.2,0,0.3,0.1l0.1,0.1l0.1-0.1l0.1,0.1l0.1,0.1c0.1,0.1,0.1,0.1,0.1,0.1l0.1,0.1l0,0.1l0,0.1
					c0,0,0,0,0,0.1l0,0.1C76.2,57.5,76.2,57.7,76.2,57.8z"/>
				<path class="st8" d="M76.4,56.9l-0.2,0.9c0-0.5-0.5-1-1.1-1.2l-2.4-0.5l-1.9-0.4c-0.7-0.2-1.3,0.3-1.5,1l0,0l0,0l-0.7,4L67.1,69
					c-0.2,0.7,0.3,1.3,1,1.5l0,0l0.5,0.1l1.3,0.2l0.1,0.1l0.7,0.1l0.4,0.1l0,0l0.6,0.2l0.5,0.1l0.1,0.1l0,0l0.2,0
					c0.2,0,0.5,0,0.7-0.2l0.1-0.1l0.1,0l0.1,0l0,0c0.1-0.1,0.3-0.2,0.3-0.4L73.5,72c-0.2,0.7-0.8,1.1-1.4,1l-2.7-0.5l-1.7-0.4
					c-0.7-0.2-1.1-0.8-1-1.5l1.9-10l0.8-4.5l0.1-0.6c0.2-0.7,0.8-1.1,1.4-1l4.6,0.9C76.1,55.6,76.6,56.3,76.4,56.9L76.4,56.9z"/>
			</g>
			<g id="Layer_6">
				<path class="st9" d="M114.1,39c0,0-0.8-0.7-0.1-1.3s13.1-12.3,13.1-12.3c0.7-0.7,1.9-0.8,2.7-0.1l3.4,1.7c0,0,1.2,0.6,0.8,1.5
					c-0.3-0.4-0.7-0.7-1.1-0.9l-3.6-1.9c-0.6-0.4-1.5-0.3-2,0.3c-1,0.9-12.5,11.9-12.5,11.9S113.9,38.5,114.1,39z"/>
				<path class="st10" d="M114.9,37.8c0,0-1.3,1-0.5,1.5c0.3,0.2,3.3,0.8,3.3,0.8l2.3,0.6c0.5,0.2,1,0.1,1.4-0.2
					c0.5-0.5,12.2-11.2,12.2-11.2s0.9-0.6-0.2-1.4c-1.4-0.7-3.3-1.7-3.3-1.7s-1.7-1.2-2.8-0.2S114.9,37.8,114.9,37.8z"/>
				<path class="st9" d="M117.1,38.2c-0.1,0.4-0.3,0.7-0.6,0.8c-0.8,0.5-1.1-0.4-0.7-0.8c0.2-0.2,0.4-0.4,0.7-0.4
					C116.7,37.8,117,37.9,117.1,38.2C117,38.2,117,38.2,117.1,38.2z"/>
				<path class="st1" d="M65.4,0H52l-0.3,6.9l-0.3,5.6v0.1c0.2,0.7,2,1,3.5,0.8l9.4-1.2c1-0.1,1.4-0.6,1.4-1.1L66.1,0H65.4z"/>
				<path class="st2" d="M65.4,0l-0.3,10.8c0,0.5-0.7,0.9-1.6,1l-9.4,1.3c-0.9,0.2-1.9,0-2.7-0.5c-0.1,0-0.1-0.1-0.2-0.2
					c-0.1-0.1-0.1-0.2-0.1-0.3L51.5,0H65.4z"/>
				<path class="st1" d="M64.9,0l-0.3,10.3c0,0.4-0.6,0.8-1.5,0.9l-8.8,1.2c-0.9,0.2-1.9,0-2.6-0.7c-0.1-0.1-0.1-0.2-0.1-0.3
					l0.1-4.7L51.8,0H64.9z"/>
			</g>
		</g>
		<line class="st11" x1="66.1" y1="0" x2="65.4" y2="0"/>
		<path class="st12" d="M70.9,63.8l1.2,0.3c0.2,0,0.4,0.2,0.3,0.4l-0.3,1.2c0,0.2-0.2,0.4-0.4,0.3l-1.2-0.3c-0.2,0-0.4-0.2-0.3-0.4
			l0.3-1.2C70.6,63.8,70.8,63.7,70.9,63.8z"/>
		<path class="st12" d="M71.5,64.4L71.5,64.4c0.3,0,0.5,0.3,0.4,0.5l0,0c0,0.3-0.3,0.5-0.5,0.4l0,0c-0.3,0-0.5-0.3-0.4-0.5l0,0
			C71,64.5,71.3,64.3,71.5,64.4z"/>
		<circle class="st12" cx="72.1" cy="64.3" r="0.1"/>
	</g>
</g>
</svg>
