<svg xmlns="http://www.w3.org/2000/svg" viewBox="0 0 234 270"><defs><style>.cls-1{fill:#fff;}.cls-2{fill:#f3ac89;}.cls-3{fill:#db8f6b;}.cls-4{fill:#af664b;}</style></defs><title>svg white border head</title><g id="Layer_2" data-name="Layer 2"><g id="Layer_1-2" data-name="Layer 1"><polygon class="cls-1" points="234 54 234 99 216 99 216 117 198 117 198 162 189 162 189 261 180 261 180 270 81 270 81 261 54 261 54 243 36 243 36 225 18 225 18 198 9 198 9 180 0 180 0 108 9 108 9 36 36 36 36 9 99 9 99 0 126 0 126 9 162 9 162 0 189 0 189 9 198 9 198 27 207 27 207 36 216 36 216 45 225 45 225 54 234 54"/><polygon class="cls-2" points="135 225 144 225 144 234 117 234 117 207 135 207 135 225"/><rect class="cls-2" x="153" y="207" width="18" height="27"/><path class="cls-2" d="M162,81V99h-9V81H63V99H45v18h81v9h9v9h-9v18H81V126H45v-9H36v45h9v18H63v18H99v9h18V189h9v-9h36v9h9v18h9V153H153V135h-9v-9h9v-9h27V81Z"/><rect class="cls-3" x="153" y="207" width="18" height="27"/><polygon class="cls-3" points="180 81 180 117 153 117 153 126 144 126 144 81 153 81 153 99 162 99 162 81 180 81"/><polygon class="cls-3" points="180 153 180 207 171 207 171 189 162 189 162 180 153 180 153 162 144 162 144 135 153 135 153 153 180 153"/><polygon points="216 54 216 63 207 63 207 108 198 108 198 99 180 99 180 81 162 81 162 99 153 99 153 81 63 81 63 99 45 99 45 117 36 117 36 162 45 162 45 180 63 180 63 198 99 198 99 207 117 207 117 234 144 234 144 225 135 225 135 216 153 216 153 234 171 234 171 207 180 207 180 252 171 252 171 261 90 261 90 252 63 252 63 234 45 234 45 216 27 216 27 189 18 189 18 171 27 171 27 117 18 117 18 54 27 54 27 45 45 45 45 18 108 18 108 9 117 9 117 18 171 18 171 9 180 9 180 18 189 18 189 36 198 36 198 45 207 45 207 54 216 54"/><rect class="cls-2" x="9" y="117" width="18" height="54"/><polygon points="171 189 171 207 162 207 162 198 126 198 126 207 117 207 117 189 126 189 126 180 162 180 162 189 171 189"/><polygon class="cls-4" points="162 198 162 207 153 207 153 216 135 216 135 207 126 207 126 198 162 198"/><rect class="cls-3" x="18" y="126" width="9" height="27"/><rect x="135" y="117" width="9" height="9"/><polygon points="135 126 135 135 126 135 126 153 81 153 81 126 45 126 45 117 126 117 126 126 135 126"/><polygon points="189 117 189 153 153 153 153 135 144 135 144 126 153 126 153 117 189 117"/><rect x="216" y="63" width="9" height="27"/></g></g></svg>