<svg xmlns="http://www.w3.org/2000/svg" viewBox="0 0 261 342"><defs><style>.cls-1{fill:#fff;}.cls-2{fill:#f3ac89;}.cls-3{fill:#db8f6b;}.cls-4{fill:#cc333f;}.cls-5{fill:#932424;}.cls-6{fill:#af664b;}.cls-7{fill:none;}</style></defs><title>svg white border</title><g id="Layer_2" data-name="Layer 2"><g id="Layer_1-2" data-name="Layer 1"><polygon class="cls-1" points="207 261 207 270 225 270 225 279 243 279 243 297 261 297 261 342 0 342 0 288 18 288 18 270 63 270 63 225 45 225 45 198 36 198 36 180 27 180 27 108 36 108 36 36 63 36 63 9 126 9 126 0 153 0 153 9 189 9 189 0 216 0 216 9 225 9 225 27 234 27 234 36 243 36 243 45 252 45 252 54 261 54 261 99 243 99 243 117 225 117 225 162 216 162 216 261 207 261"/><rect class="cls-2" x="81" y="279" width="9" height="9"/><polygon class="cls-3" points="180 261 180 288 171 288 171 297 126 297 126 288 108 288 108 279 99 279 99 252 117 252 117 261 180 261"/><rect class="cls-3" x="171" y="288" width="9" height="9"/><polygon class="cls-4" points="252 306 252 342 27 342 27 306 45 306 45 288 63 288 63 279 81 279 81 288 90 288 90 306 99 306 99 315 108 315 108 324 126 324 126 333 162 333 162 324 171 324 171 315 180 315 180 297 189 297 189 279 216 279 216 288 234 288 234 306 252 306"/><polygon class="cls-4" points="171 297 171 315 162 315 162 324 126 324 126 315 108 315 108 306 99 306 99 288 90 288 90 279 108 279 108 288 126 288 126 297 171 297"/><rect class="cls-4" x="81" y="279" width="9" height="9"/><rect class="cls-4" x="99" y="306" width="9" height="9"/><rect class="cls-4" x="108" y="315" width="18" height="9"/><rect class="cls-4" x="126" y="324" width="36" height="9"/><rect class="cls-4" x="162" y="315" width="9" height="9"/><polygon class="cls-4" points="189 279 189 297 180 297 180 315 171 315 171 288 180 288 180 279 189 279"/><polygon class="cls-5" points="63 279 63 288 45 288 45 306 27 306 27 342 9 342 9 297 27 297 27 279 63 279"/><polygon class="cls-2" points="99 252 99 279 72 279 72 234 90 234 90 252 99 252"/><polygon class="cls-2" points="162 225 171 225 171 234 144 234 144 207 162 207 162 225"/><rect class="cls-2" x="180" y="207" width="18" height="27"/><path class="cls-2" d="M189,81V99h-9V81H90V99H72v18h81v9h9v9h-9v18H108V126H72v-9H63v45h9v18H90v18h36v9h18V189h9v-9h36v9h9v18h9V153H180V135h-9v-9h9v-9h27V81Z"/><rect class="cls-3" x="180" y="207" width="18" height="27"/><polygon class="cls-3" points="207 81 207 117 180 117 180 126 171 126 171 81 180 81 180 99 189 99 189 81 207 81"/><polygon class="cls-3" points="207 153 207 207 198 207 198 189 189 189 189 180 180 180 180 162 171 162 171 135 180 135 180 153 207 153"/><polygon points="243 54 243 63 234 63 234 108 225 108 225 99 207 99 207 81 189 81 189 99 180 99 180 81 90 81 90 99 72 99 72 117 63 117 63 162 72 162 72 180 90 180 90 198 126 198 126 207 144 207 144 234 171 234 171 225 162 225 162 216 180 216 180 234 198 234 198 207 207 207 207 252 198 252 198 261 117 261 117 252 90 252 90 234 72 234 72 216 54 216 54 189 45 189 45 171 54 171 54 117 45 117 45 54 54 54 54 45 72 45 72 18 135 18 135 9 144 9 144 18 198 18 198 9 207 9 207 18 216 18 216 36 225 36 225 45 234 45 234 54 243 54"/><rect class="cls-2" x="36" y="117" width="18" height="54"/><polygon points="198 189 198 207 189 207 189 198 153 198 153 207 144 207 144 189 153 189 153 180 189 180 189 189 198 189"/><polygon class="cls-6" points="189 198 189 207 180 207 180 216 162 216 162 207 153 207 153 198 189 198"/><rect class="cls-3" x="45" y="126" width="9" height="27"/><rect x="162" y="117" width="9" height="9"/><polygon points="162 126 162 135 153 135 153 153 108 153 108 126 72 126 72 117 153 117 153 126 162 126"/><polygon points="216 117 216 153 180 153 180 135 171 135 171 126 180 126 180 117 216 117"/><line class="cls-7" x1="9" y1="297" x2="9" y2="342"/><rect x="243" y="63" width="9" height="27"/><rect class="cls-1" x="180" y="279" width="9" height="18"/><rect class="cls-1" x="162" y="315" width="9" height="9"/><rect class="cls-1" x="126" y="324" width="36" height="9"/><rect class="cls-1" x="99" y="306" width="9" height="9"/><rect class="cls-1" x="81" y="279" width="9" height="9"/><rect class="cls-1" x="108" y="315" width="18" height="9"/><rect class="cls-1" x="90" y="288" width="9" height="18"/><rect class="cls-1" x="171" y="297" width="9" height="18"/></g></g></svg>