<?xml version="1.0" encoding="utf-8"?>
<!-- Generator: Adobe Illustrator 24.0.1, SVG Export Plug-In . SVG Version: 6.00 Build 0)  -->
<svg version="1.1" id="Layer_1" xmlns="http://www.w3.org/2000/svg" xmlns:xlink="http://www.w3.org/1999/xlink" x="0px" y="0px"
	 viewBox="0 0 1588.9 1482.3" style="enable-background:new 0 0 1588.9 1482.3;" xml:space="preserve">
<style type="text/css">
	.st0{fill:url(#SVGID_1_);}
	.st1{fill:#00633B;}
	.st2{fill:#FCAC00;}
	.st3{fill:#F34E1F;}
	.st4{fill:#A158FE;}
	.st5{fill:#0E9964;}
	.st6{fill:#12BBFE;}
	.st7{opacity:0.83;}
	.st8{fill:#F98800;}
	.st9{fill:#FDEDB6;}
	.st10{fill:#FC7917;}
	.st11{fill:#C15200;}
	.st12{fill:#FCD131;}
	.st13{fill:#F9A332;}
	.st14{fill:#BF2400;}
	.st15{fill:#5B0C48;}
	.st16{fill:#FDD8F0;}
	.st17{fill:#FDD8F1;}
</style>
<title>Asset 16</title>
<g id="Layer_2_1_">
	<g id="Layer_7">
		
			<linearGradient id="SVGID_1_" gradientUnits="userSpaceOnUse" x1="1489.7733" y1="148.568" x2="272.4315" y2="1186.5471" gradientTransform="matrix(1 0 0 -1 0 1482)">
			<stop  offset="0" style="stop-color:#2FC1A5"/>
			<stop  offset="1" style="stop-color:#0EA164"/>
		</linearGradient>
		<path class="st0" d="M0,0v1481.2h533.9c0-0.2,0.1-0.3,0.2-0.5c8.5,0.3,18.2,0.5,29.5,0.5H1589V0H0z M733,745.3
			c0-0.2-0.1-0.4-0.1-0.5s0.1-0.2,0.1-0.3C733,744.8,733.1,745.1,733,745.3z M760.2,759.9c0-0.1,0-0.1,0-0.2l0,0h0.1
			C760.2,759.8,760.2,759.9,760.2,759.9z M764.9,759.3L764.9,759.3L764.9,759.3L764.9,759.3z M796.9,596.4L796.9,596.4
			c0.1,0,0.1,0,0.2,0.1L796.9,596.4z M821,705.4c0.3,0.3,0.7,0.6,1.1,0.9C821.7,706.1,821.3,705.8,821,705.4z M824.7,716.1
			c0-0.1,0-0.2,0-0.3h0.1C824.7,715.9,824.7,716,824.7,716.1L824.7,716.1z"/>
		<path class="st1" d="M867.2,610.3c17.1,5.8,34.4,11.2,51.2,17.7c26.8,10.6,39.9,40.8,29.4,67.6c-8.9,22.4-32,35.9-55.8,32.5
			c-2-0.3-4-0.1-5.9-0.5c-7.8-1.6-43.8-8.6-55.2-15c-16.2,1.8,20.3-69.4,27.8-90.5C860.3,617.3,862,612.5,867.2,610.3z"/>
		<path class="st1" d="M867.2,610.3c-10.3,29.3-20.8,58.6-30.8,88.1c-2.9,3.7-0.8,10-5.6,9.8c-9.7-0.5-30-12.6-53.3-20
			c-24.3-12.6-35-40.4-25.2-65.5c9.8-24.9,37.4-38.9,63.1-30.9C832.8,597.2,849.9,604.1,867.2,610.3z"/>
		<path class="st1" d="M777,689.3l55.3,19.9c3.9,8.1-0.6,15-3.7,21.8c-2.9,6-5,12.4-6.1,19c-2.6,5.8-2.8,13.2-9.8,16.4
			c-3.9,10.7-8.1,21.3-11.5,32.2c-1.9,6.1-4.4,7.9-10.8,5.4c-13.1-5.1-26.6-9.3-39.8-14.2c-27.6-10.3-41.9-36.1-34.9-62.8
			S747.9,684.8,777,689.3z"/>
		<path class="st1" d="M766.2,797c8.2,2.9,16.4,5.8,24.7,8.6c4,1.4,6.6,3.4,4.7,8.1c-7.2,18-10.9,37.3-21,54.2
			c-12.8,21.6-41.6,29.2-65.8,18c-28.6-13.3-35.2-46-25.5-67.9c10.3-23,35.7-37.9,62-28.4C752.2,792.1,759.2,794.5,766.2,797
			L766.2,797z"/>
		<path class="st1" d="M812.7,766.3c2-5.8,4-11.5,6.1-17.3c5.4-13.9,14.5-23.6,29.5-27.5c7.2-1.9,13.9,0.4,20.8,0.5l16.9,5.5
			c22,11,33.3,31.5,30.3,54.9c-2.9,21.9-19.4,38.8-42.7,43.7c-29.8,6.3-60.6-18.4-61-48.9C812.5,773.7,812.6,770,812.7,766.3z"/>
		<path class="st2" d="M864.1,602.7c17.1,5.8,34.4,11.2,51.2,17.7c26.8,10.5,39.9,40.8,29.4,67.6c-8.8,22.5-32,35.9-55.9,32.5
			c-2-0.3-4-0.1-5.9-0.5c-7.8-1.6-43.9-8.6-55.2-15c-16.2,1.8,20.3-69.3,27.8-90.5C857.2,609.7,858.9,604.9,864.1,602.7z"/>
		<path class="st3" d="M864.1,602.7c-10.3,29.3-20.8,58.6-30.8,88.1c-2.9,3.7-0.8,10-5.6,9.8c-9.7-0.5-30-12.6-53.3-20
			c-24.3-12.5-35-40.4-25.2-65.5c9.8-24.9,37.4-38.9,63.1-30.9C829.8,589.6,846.8,596.5,864.1,602.7z"/>
		<path class="st4" d="M774,681.7l55.3,19.9c3.9,8.1-0.6,15-3.7,21.8c-2.9,6-5,12.4-6.1,19c-2.6,5.8-2.8,13.2-9.8,16.3
			c-3.9,10.7-8.1,21.3-11.5,32.2c-1.9,6.1-4.4,7.9-10.7,5.4c-13.1-5.1-26.6-9.3-39.8-14.2c-27.6-10.2-41.9-36.1-34.9-62.8
			S744.8,677.2,774,681.7z"/>
		<path class="st5" d="M763.2,789.4c8.2,2.9,16.4,5.8,24.7,8.6c4,1.4,6.6,3.5,4.7,8.1c-7.2,18-10.9,37.3-21,54.2
			c-12.8,21.6-41.7,29.2-65.8,18c-28.6-13.3-35.2-46-25.5-67.9c10.3-23,35.7-37.9,62.1-28.4C749.3,784.5,756.2,786.9,763.2,789.4
			L763.2,789.4z"/>
		<path class="st6" d="M809.6,758.8c2-5.8,4-11.5,6.1-17.3c5.4-13.9,14.5-23.6,29.5-27.5c7.2-1.9,13.9,0.4,20.8,0.5l16.9,5.5
			c22,10.9,33.3,31.5,30.3,54.9c-2.9,21.9-19.4,38.8-42.7,43.7c-29.8,6.3-60.6-18.4-61-48.9C809.5,766.1,809.6,762.4,809.6,758.8z"
			/>
		<path class="st1" d="M1200.1,0.3c5.9,18.1,12.3,36.1,20,53.6c21.5,49,51.2,93.9,87.7,133c51.4,55.4,115.3,97.7,186.3,123.3
			c29.7,10.9,60.5,18.6,91.8,23.1c0.8,0.2,1.5,0.4,2.2,0.6v87.7c-12.5-2.1-25-3.7-37.4-6.1c-68.6-13.1-132.7-37.9-191.8-75
			c-100.5-63.2-174.3-149.4-221.4-258.5c-11.3-26.5-20.5-53.8-27.5-81.8L1200.1,0.3L1200.1,0.3z"/>
		<path class="st6" d="M1588.9,314.1v88l-0.8-0.1c-6.4-1-12.9-2-19.3-3.2c-68.6-13.1-132.7-37.9-191.8-75
			c-100.6-63.2-174.4-149.4-221.4-258.5c-9.1-21.1-16.8-42.9-23-65c0-0.1-0.1-0.2-0.1-0.3h91.2c4.4,12.6,9.1,25,14.5,37.2
			c21.5,49,51.2,93.9,87.7,133c51.4,55.4,115.3,97.6,186.3,123.3C1537.2,302.6,1562.8,309.5,1588.9,314.1z"/>
		<g class="st7">
			<path class="st2" d="M151,1461.4h0.1l49.7-8.9h0.1c0.6-0.1,1.2,0.1,1.6,0.5c0.4,0.3,0.6,0.8,0.7,1.3v0.3l0.1,0.8l0.1,0.4l0.1,0.9
				l0.3,1.9l0.5,3.3l2.9,19.2h-41.8l-15.4-16.3c-0.8-0.9-0.7-2.2,0.1-3C150.4,1461.7,150.6,1461.5,151,1461.4z"/>
			<path class="st8" d="M347.3,1439.1c-0.1-1.1,0.7-2.1,1.8-2.2l0,0c0.1,0,0.1,0,0.2,0l1.5-0.1l47.8-1.7l0,0h1.1c1.2,0,2.1,1,2,2.2
				c0,0.4-0.1,0.7-0.3,1l-25.8,42.9H350l-2.2-33.7l-0.2-2.6l-0.3-4v-0.4l-0.1-0.9v-0.2L347.3,1439.1z"/>
			<path class="st2" d="M201.7,1448.1c1.2-5.1,3.9-9.6,5.7-14.5c12.2-33.2,25.3-66.1,37.8-99.2c3.6-9.7,8.5-18.9,11.8-28.6l0,0
				c1.6-3.7,3.2-4.3,4.7-3.6c1.3,0.7,2.7,2.4,4,3.8c2.2,5.9,7.2,9.9,10.5,15.1c2.1,3.4,4.2,6.8,6.3,10.1c3.2,5,0,0,0,0
				c5.2,8.2,10.5,16.4,15.9,24.5c12.6,18.6,24.7,37.5,37,56.3c4.3,6.7,8.7,13.3,13.1,20c1,1.5,2.2,3,2.2,4.9c0,0.7-0.1,1.4-0.4,2
				l-0.1,0.3c-0.3,0.3-0.5,0.5-0.8,0.8c-0.3,0.2-0.6,0.4-0.9,0.6c-0.4,0.2-0.8,0.4-1.2,0.5c-1.7,0.5-3.5,0.5-5.2,0.7l-1.4,0.1
				c-23.9,2.6-47.8,5.2-71.8,7.7c-21.5,2.2-43,5-64.5,6.7l-0.2-0.1c-0.3-0.1-0.5-0.2-0.8-0.3c-0.1-0.1-0.3-0.1-0.4-0.2
				c-0.3-0.1-0.5-0.3-0.8-0.5c-0.1-0.1-0.2-0.1-0.2-0.2c-0.7-0.7-1.1-1.6-1.1-2.5C201,1450.9,201.2,1449.5,201.7,1448.1z"/>
			<path class="st9" d="M202.5,1456.6c0.1-0.4,0.3-0.7,0.6-1c0.1-0.1,0.2-0.2,0.3-0.3c1.4-1,4-0.4,5.8-0.6
				c44.9-4.9,89.8-9.7,134.7-14.4c1.1-0.1,2.3-0.6,3.5-0.7c0.7-0.1,1.5,0,2.1,0.3c0.3,0.1,0.6,0.3,0.9,0.6l0,0
				c0,0.2,0.1,0.5,0.1,0.7c-0.6,2.2-1.5,4.4-2.7,6.4c-2.8,5-6.8,9.4-10.2,14c-4.8,6.6-9.6,13.1-14.5,19.7h-97.2
				c-6.6-5.6-13.3-11.3-19.6-17.2c-0.7-0.6-1.3-1.3-2-2C202.9,1460.4,201.9,1458.6,202.5,1456.6z"/>
			<path class="st10" d="M202.3,1454.6c0.6-5.7,3.4-10.6,5.4-15.9c11.9-31,23.7-62.1,35.5-93.2c4.4-11.5,8.9-22.8,13.2-34.3
				c0.7-1.7,2.7-3.5,0.5-5.6c-35.3,51.5-70.7,102.9-107,155.8l51.2-5.5C201.8,1455.9,202.3,1455.3,202.3,1454.6
				C202.3,1454.7,202.3,1454.7,202.3,1454.6z"/>
			<path class="st11" d="M265.4,1307.2c0.1-0.4,0.2-0.8,0.3-1.2c15.9,15,31.8,29.9,47.7,44.9c19.8,18.6,39.6,37.2,59.4,55.8
				l25.2,23.6c1,1,2.9,1.7,2.5,3.3c-0.2,0.9-1,1.6-1.9,1.6c-0.8,0.1-1.6,0-2.3,0.1c-0.5,0.1-1.1,0.1-1.6,0.2
				c-4.9,0.6-9.9,1.1-14.8,1.6l-17.2,1.8l-2.8,0.3l-3.4,0.4h-0.1c-2.1,0.2-4,0.3-6-0.7l-1.3-2c-4.2-6.3-8.4-12.6-12.5-19
				c-2.6-3.9-5.2-7.9-7.8-11.9c-20.1-30.6-40.1-61.3-60-91.9C267.4,1312.1,264.9,1310.1,265.4,1307.2z"/>
			<path class="st12" d="M201.2,1456.1l0.9-1.1l0.3-0.3l0.9-0.1c11.7-1.2,23.4-2.4,35.2-3.6c36.3-3.8,72.6-7.6,108.9-11.5l3-0.3
				c0,0.4,0,0.9,0.1,1.3l0,0c-0.6,0-1.2,0-1.8,0c-0.2,0-0.5,0-0.7,0l-0.5,0.1c-47,5-94.1,10-141.1,15.1c-0.7,0-1.4,0.1-2,0.4
				c-0.3,0.2-0.5,0.4-0.7,0.7c-0.2,0.4-0.4,0.8-0.5,1.2l0.8,0.7l26,22.5h-24.6C203.9,1472.8,202.5,1464.5,201.2,1456.1z"/>
			<path class="st13" d="M320.5,1481.2l27.2-36.3l2.8-3.8c1.5,13.3,2.2,26.7,2.7,40.1L320.5,1481.2L320.5,1481.2z"/>
		</g>
		<polygon class="st14" points="178,260.5 118.9,196.9 173.5,118.4 107.5,67.3 137.1,0 183.4,0 154.2,62.7 219,115 165.5,187.8 
			232.5,255.9 233.7,257.1 		"/>
		<polygon class="st3" points="189.1,258.5 130,194.8 184.6,116.4 118.7,65.2 147.3,0 193.6,0 165.3,60.7 230.1,113 176.6,185.7 
			244.8,255.1 232.5,255.9 		"/>
		<rect x="1098.5" y="1136" class="st1" width="78.3" height="78.3"/>
		<circle class="st1" cx="1255" cy="1174" r="42.6"/>
		<polygon class="st1" points="1397.6,1137 1352.3,1137 1329.7,1176.2 1352.3,1215.4 1397.6,1215.4 1420.3,1176.2 		"/>
		<rect x="1095" y="1131.7" class="st5" width="78.3" height="78.3"/>
		<circle class="st5" cx="1251.6" cy="1169.7" r="42.6"/>
		<polygon class="st5" points="1394.2,1132.7 1348.9,1132.7 1326.2,1171.9 1348.9,1211.1 1394.2,1211.1 1416.8,1171.9 		"/>
		<path d="M1280.3,443.2c-20.1,6.9-40.2,13.9-60.3,20.7c-19.7,6.7-36.8-1.8-43.6-21.5c-13.2-38.3-26.3-76.5-39.4-114.8
			c-6.6-19.3,1.8-36.7,21-43.4c40.4-14,80.8-27.9,121.3-41.7c18.7-6.4,35.9,2.1,42.3,20.6c13.5,39.1,27,78.2,40.3,117.4
			c6.1,18-2.1,35.1-20,41.5C1321.5,429.2,1300.9,436.1,1280.3,443.2z"/>
		<path class="st15" d="M1272.4,435.8c-19,6.5-38,13.1-57.1,19.6c-18.7,6.3-34.8-1.7-41.3-20.4c-12.5-36.2-24.9-72.4-37.3-108.6
			c-6.2-18.2,1.7-34.7,19.8-41c38.2-13.2,76.5-26.4,114.8-39.4c17.7-6,34,2,40,19.5c12.8,37,25.5,74,38.1,111
			c5.8,17-2,33.3-18.9,39.2C1311.4,422.6,1291.9,429.1,1272.4,435.8z"/>
		<path class="st16" d="M1297.9,325.6c4.2,12.1,8.2,24.3,12.6,36.3c1,2.6,0.7,4.2-1.3,6c-7.6,6.8-16.6,10.5-26.5,11.8
			c-4.5,0.6-9.1-0.2-13.1-2.3c-14-7.3-19.5-20-19.9-34.8c-0.3-14.5,7.7-25.4,21.3-30.2c4.5-1.6,5.8-3.2,3.7-7.7
			c-1.5-3-1.9-6.6-3.5-9.6c-2.9-5.6-0.4-7.2,4.6-9.3c6.3-2.6,8.3-0.8,10.1,5.2c3.5,11.7,7.8,23.1,11.7,34.6H1297.9z"/>
		<path class="st17" d="M1215.5,365.7c-1.2,10.7-2.6,20-3.1,29.3c-0.3,6.8-2.4,11.3-9.7,12.4c-1.9,0.3-3.6,1.2-6,2
			c-0.6-6.3,1.3-12,2-17.8c1.2-9.3,2.5-18.6,4.3-27.8c0.7-3.7-0.4-5.8-3-8.2c-9.6-9.1-18.9-18.5-28.4-27.7c-3-2.9-4.3-4.4,1.1-6.5
			c7.2-2.9,12.3-2.9,17.5,3.9c5.4,7,12.3,13,19.3,20.2c0.9-8.9,1.8-17.1,2.7-25.3c1.4-13.6,1.4-13.6,16-17.2
			c-2,13.5-3.6,26.8-6,39.9c-1.2,6.3,0,10.6,5,14.9c9.8,8.5,18.9,17.8,28.5,26.6c3.2,2.9,2.3,3.6-1.2,5.4c-8.1,4.1-14,2.9-19.7-4.4
			C1229.4,378.7,1222.7,373,1215.5,365.7z"/>
		<path class="st15" d="M1287.7,342.7c1.9,5.4,3.6,10.9,5.6,16.3c1.1,2.8,0.2,4.3-2.5,5.4c-5.2,2.1-10.3,2.5-15.3-0.5
			c-8.8-5.3-13.9-22-9.6-31.4c1.2-2.8,3.2-5.1,5.7-6.7c7.1-4.4,8.9-3.7,11.6,4.1C1284.7,334.2,1286.2,338.4,1287.7,342.7z"/>
	</g>
</g>
</svg>
